<?xml version="1.0" standalone="no"?>
<!DOCTYPE svg PUBLIC "-//W3C//DTD SVG 20010904//EN"
 "http://www.w3.org/TR/2001/REC-SVG-20010904/DTD/svg10.dtd">
<svg version="1.0" xmlns="http://www.w3.org/2000/svg"
 width="768.000000pt" height="768.000000pt" viewBox="0 0 768.000000 768.000000"
 preserveAspectRatio="xMidYMid meet">
<metadata>
Created by potrace 1.11, written by Peter Selinger 2001-2013
</metadata>
<g transform="translate(0.000000,768.000000) scale(0.100000,-0.100000)"
fill="#000000" stroke="none">
<path d="M7651 7383 c-16 -22 -20 -24 -21 -10 0 19 -15 23 -25 7 -3 -5 -24
-10 -45 -10 -21 0 -42 -5 -45 -11 -4 -5 -19 -8 -33 -6 -15 2 -21 2 -14 0 27
-10 -2 -23 -37 -17 -24 4 -41 2 -45 -5 -4 -6 -18 -11 -32 -11 -14 0 -32 -7
-40 -15 -9 -8 -28 -15 -44 -15 -17 0 -33 -7 -39 -17 -6 -10 -11 -12 -11 -5 0
17 -20 15 -20 -3 0 -17 -16 -20 -25 -5 -3 6 -1 10 6 10 7 0 10 3 6 6 -3 3 -20
-1 -39 -9 -59 -26 -72 -30 -133 -32 -53 -3 -63 -6 -86 -34 -23 -28 -28 -30
-39 -16 -7 8 -17 12 -22 9 -20 -13 -68 -14 -89 -3 -19 9 -25 9 -35 -5 -16 -23
-18 -23 -37 -7 -10 7 -25 10 -34 6 -10 -3 -46 -8 -81 -10 -35 -1 -68 -7 -74
-13 -11 -11 -41 -5 -34 7 2 3 -18 6 -45 7 -32 0 -49 -4 -49 -12 0 -13 -47 -16
-55 -3 -3 4 -23 6 -45 3 -33 -4 -39 -2 -34 11 3 8 1 15 -5 15 -6 0 -11 -7 -11
-15 0 -8 -8 -16 -17 -16 -10 -1 -25 -2 -33 -3 -8 -1 -21 -5 -27 -9 -7 -5 -17
-5 -23 -2 -5 3 -10 -1 -10 -9 0 -9 -4 -16 -10 -16 -5 0 -10 7 -10 15 0 16 -26
21 -32 5 -1 -5 -12 -11 -23 -13 -11 -1 -26 -6 -32 -10 -7 -5 -18 -5 -24 -2
-19 12 -79 -5 -79 -22 0 -13 -9 -15 -55 -10 -33 3 -53 2 -50 -4 4 -5 2 -9 -4
-9 -5 0 -13 5 -16 10 -3 6 -22 10 -41 10 -26 0 -44 -8 -64 -29 -26 -25 -33
-27 -74 -21 -35 5 -46 4 -46 -7 0 -17 -27 -17 -33 0 -2 6 -8 9 -12 4 -5 -4 -3
-13 3 -19 19 -19 14 -31 -13 -26 -14 3 -33 -1 -42 -8 -10 -7 -29 -14 -42 -14
-16 0 -21 -4 -17 -15 4 -12 0 -14 -19 -9 -19 5 -25 2 -25 -10 0 -9 -4 -16 -10
-16 -5 0 -10 9 -10 20 0 11 7 20 15 20 8 0 15 5 15 10 0 7 -8 7 -22 -1 -42
-21 -49 -30 -37 -45 11 -14 4 -34 -12 -34 -6 0 -18 7 -27 17 -15 15 -17 14
-22 -8 -4 -16 -8 -20 -14 -11 -10 16 -26 15 -26 -2 0 -8 -13 -17 -30 -21 -16
-4 -30 -12 -30 -18 0 -7 -11 -17 -25 -24 -20 -9 -27 -8 -33 2 -10 18 -52 0
-59 -25 -7 -25 -33 -27 -33 -2 -1 15 -2 15 -15 -2 -8 -11 -15 -14 -15 -8 0 7
-11 12 -25 12 -18 0 -25 -5 -25 -20 0 -15 -7 -20 -27 -20 -24 0 -25 -1 -9 -13
15 -11 13 -14 -21 -26 -21 -8 -41 -19 -45 -25 -5 -8 -8 -7 -8 2 0 6 -9 12 -20
12 -11 0 -20 -6 -20 -14 0 -8 -8 -17 -17 -19 -14 -4 -13 -5 4 -6 12 0 25 -6
28 -12 4 -6 1 -9 -7 -7 -22 5 -79 -48 -72 -66 8 -22 -32 -21 -44 0 -13 24 -52
9 -52 -19 1 -22 1 -22 15 -3 8 11 15 18 16 15 3 -18 8 -37 15 -53 6 -15 4 -17
-14 -11 -19 5 -22 2 -22 -19 0 -14 -5 -28 -12 -32 -8 -5 -9 -2 -5 9 3 10 2 17
-3 17 -6 0 -10 -4 -10 -10 0 -5 -9 -10 -19 -10 -14 0 -18 -6 -15 -22 4 -21 3
-20 -6 2 -11 24 -12 24 -26 6 -8 -11 -14 -26 -14 -33 0 -7 -4 -13 -10 -13 -5
0 -10 10 -10 23 -1 20 -2 21 -14 5 -16 -22 -30 -23 -46 -4 -6 8 -18 12 -26 9
-21 -8 -17 -23 7 -23 11 0 17 -4 14 -10 -3 -5 -15 -10 -26 -10 -16 0 -18 -3
-9 -19 13 -26 13 -32 -2 -30 -20 3 -78 -13 -84 -22 -3 -5 -16 -9 -30 -9 -15 0
-24 -6 -24 -15 0 -17 -16 -20 -25 -5 -7 11 -35 2 -35 -12 0 -7 17 -8 45 -5 25
4 47 2 50 -3 3 -6 -3 -10 -14 -10 -25 0 -37 -18 -17 -25 49 -15 52 -18 31 -23
-11 -2 -24 -10 -28 -18 -4 -8 -14 -14 -21 -14 -8 0 -12 -13 -11 -35 1 -34 15
-64 15 -32 0 10 5 17 10 17 6 0 10 -8 10 -17 0 -32 20 9 20 42 0 22 3 26 9 15
6 -8 7 -27 4 -42 -4 -22 -2 -28 12 -28 10 0 27 -8 37 -17 14 -13 21 -14 27 -5
5 9 13 7 29 -8 11 -11 29 -20 40 -20 10 0 24 -6 31 -12 11 -11 13 -10 9 2 -4
11 1 16 18 18 18 1 25 -5 30 -22 3 -14 11 -23 17 -20 22 7 38 -13 42 -50 3
-35 23 -72 32 -62 3 3 16 0 30 -5 21 -8 28 -6 40 11 8 11 19 20 24 20 6 0 3
-7 -5 -16 -35 -35 -36 -49 -6 -67 18 -11 31 -14 35 -7 10 17 25 11 25 -9 0
-20 32 -39 38 -22 2 6 10 11 17 11 8 0 18 7 23 16 8 14 10 14 22 0 10 -13 16
-14 26 -5 10 8 18 9 27 0 8 -6 17 -8 21 -4 4 4 4 0 1 -9 -9 -22 15 -35 27 -14
5 9 14 16 20 16 9 0 9 -3 0 -12 -19 -19 -14 -27 28 -39 28 -8 37 -15 28 -21
-8 -4 5 -7 32 -7 44 1 44 1 17 13 -15 7 -24 15 -21 19 4 4 -5 7 -19 7 -15 0
-27 4 -27 9 0 17 24 19 58 5 22 -9 40 -10 57 -4 29 11 32 5 10 -17 -9 -8 -14
-17 -12 -19 2 -2 33 0 70 4 37 5 67 6 67 2 0 -3 -55 -13 -122 -22 -68 -9 -131
-19 -140 -23 -11 -4 -18 -3 -18 4 0 6 8 11 18 12 9 0 12 3 5 5 -6 3 -26 -2
-44 -11 -28 -15 -461 -84 -526 -85 -15 0 -64 40 -149 123 -69 67 -132 125
-138 129 -7 4 -48 1 -92 -7 -43 -7 -128 -20 -189 -29 -60 -8 -254 -35 -430
-60 -378 -53 -393 -55 -775 -106 -568 -77 -1038 -141 -1355 -187 -176 -25
-354 -49 -395 -54 -41 -5 -181 -24 -310 -43 -129 -19 -322 -44 -427 -57 l-193
-24 0 -85 0 -86 30 -11 c22 -8 32 -8 39 1 10 12 106 29 236 41 33 4 83 11 110
16 53 10 56 10 425 58 129 17 339 44 465 61 252 33 584 75 910 115 183 22 364
46 645 85 41 6 147 19 235 30 88 11 189 24 225 30 70 10 464 63 595 79 156 20
180 21 194 12 12 -7 15 -55 19 -238 3 -156 8 -230 15 -235 7 -4 4 -7 -8 -7
-11 -1 -54 -5 -95 -11 -41 -5 -129 -14 -195 -20 -66 -6 -208 -22 -315 -35
-107 -13 -280 -33 -385 -45 -104 -12 -239 -28 -300 -37 -115 -16 -173 -23
-365 -43 -63 -7 -120 -16 -127 -22 -6 -5 -22 -6 -35 -3 -13 3 -55 1 -93 -5
-39 -7 -97 -14 -130 -16 -33 -2 -121 -10 -195 -19 -198 -22 -195 -22 -450 -50
-129 -14 -284 -30 -345 -35 -145 -13 -361 -35 -575 -60 -378 -43 -411 -48
-487 -71 l-42 -14 -1 -266 0 -267 42 10 c24 5 54 7 68 5 42 -8 433 27 820 73
68 9 218 22 575 50 72 6 162 15 200 20 60 8 300 30 500 46 53 4 174 15 615 54
63 5 207 17 320 25 113 9 275 22 360 30 85 8 211 19 280 26 69 6 149 15 179
20 75 12 79 12 86 -11 8 -26 55 -28 55 -2 0 14 10 17 58 19 31 1 72 5 90 8
l32 6 2 67 2 67 5 -70 c6 -67 7 -70 31 -68 152 12 433 36 588 50 l192 17 0
158 0 157 33 6 c17 3 70 7 117 8 l85 2 5 -155 c3 -85 8 -154 13 -152 4 1 18 2
32 2 l25 0 0 159 0 158 46 7 c26 3 80 6 120 6 l74 0 0 -150 c0 -170 -1 -168
76 -154 l46 9 -1 150 -2 151 218 23 c120 12 227 23 238 24 23 2 34 -38 16 -56
-20 -20 -11 -26 33 -23 33 2 48 -1 59 -15 14 -15 14 -18 0 -23 -8 -3 -30 -6
-48 -6 -33 0 -33 -1 -32 -42 1 -24 -2 -67 -6 -97 l-8 -54 75 6 c78 6 89 1 91
-35 1 -9 25 -42 53 -73 29 -32 49 -62 45 -68 -3 -7 -3 -9 1 -5 4 3 20 -4 34
-17 23 -20 27 -32 27 -77 0 -52 -1 -53 -35 -65 -28 -9 -31 -13 -17 -18 23 -9
22 -25 -2 -25 -14 0 -18 -5 -14 -18 2 -10 -3 -24 -11 -31 -20 -17 -21 -41 -1
-41 8 0 15 5 15 10 0 6 7 10 15 10 9 0 15 -9 15 -24 0 -36 -10 -55 -26 -49
-13 5 -19 -8 -15 -31 3 -16 -10 -46 -21 -46 -6 0 -6 6 2 15 7 8 8 15 3 15 -5
0 -8 21 -7 48 2 41 1 45 -11 29 -10 -14 -14 -15 -19 -5 -6 13 -2 -19 7 -59 12
-48 -2 -52 -258 -68 -132 -8 -258 -17 -280 -20 -45 -5 -77 -7 -515 -35 -173
-12 -335 -23 -360 -25 -25 -2 -126 -9 -225 -15 -266 -15 -562 -36 -650 -46
l-51 -5 7 -67 c4 -36 5 -213 2 -392 -5 -355 -1 -410 25 -411 14 0 13 -2 -3 -8
-28 -11 42 -18 140 -13 l75 4 1 192 c1 111 4 181 9 166 4 -14 8 -100 9 -192 1
-105 5 -168 11 -168 6 0 10 54 10 143 0 79 3 178 6 219 6 66 9 75 25 71 11 -3
24 5 36 24 10 15 23 34 30 41 7 7 13 20 13 28 0 13 28 18 103 17 11 0 17 8 17
24 0 24 8 27 63 23 19 -1 27 3 27 14 0 10 9 16 23 16 12 1 45 3 72 5 28 2 146
6 262 7 117 2 213 7 213 12 0 4 54 7 120 5 66 -2 120 -1 120 3 0 4 15 6 33 6
17 -1 26 -3 20 -5 -7 -3 -13 -9 -13 -15 0 -7 17 -8 47 -4 27 3 43 2 38 -3 -6
-4 -116 -14 -245 -21 -129 -7 -246 -14 -260 -15 -14 -1 -42 -3 -63 -4 l-38 -1
7 -216 c6 -174 5 -217 -6 -224 -16 -10 -50 9 -50 27 0 7 -8 14 -17 15 -33 2
-38 4 -50 11 -16 10 -33 0 -33 -19 0 -18 -24 -44 -39 -44 -6 0 -11 -4 -11 -10
0 -13 6 -13 31 0 16 9 19 7 19 -14 0 -16 -5 -23 -16 -22 -9 0 -19 -4 -21 -10
-2 -7 18 -9 59 -8 126 6 204 3 236 -9 30 -10 36 -9 47 7 11 14 26 17 77 16 91
-3 89 -4 82 28 -10 40 -17 44 -74 44 -37 0 -55 -4 -64 -18 -12 -15 -14 -16
-22 -2 -5 9 -20 18 -34 20 -22 3 -26 9 -32 53 -3 28 -7 104 -7 171 l-1 121 61
7 c34 3 91 6 125 6 l64 0 1 -202 c1 -112 2 -210 3 -218 2 -8 3 -27 4 -43 2
-24 6 -27 33 -25 l32 2 -4 246 -4 245 120 7 c66 4 123 4 127 0 3 -4 10 -115
15 -247 l8 -240 60 3 c33 2 61 4 62 5 1 1 -3 112 -8 245 -5 134 -7 247 -4 251
2 5 89 11 192 15 249 9 253 10 253 50 0 17 -4 36 -8 41 -4 6 -50 10 -104 10
-53 0 -91 -3 -85 -7 15 -10 17 -9 -80 -13 -46 -2 -83 1 -83 6 0 5 -7 9 -17 9
-28 0 -8 10 28 15 19 2 48 6 64 8 53 9 219 10 237 3 33 -15 38 3 38 139 0 74
4 136 9 139 19 12 30 -25 41 -134 6 -63 15 -123 20 -132 6 -10 5 -18 0 -20
-10 -3 3 -391 18 -543 6 -64 9 -70 31 -73 l23 -4 -6 294 c-3 163 -2 284 3 273
l8 -20 6 20 c3 11 5 35 5 54 1 54 21 59 23 5 1 -16 4 -38 7 -49 l5 -20 7 20
c4 11 3 28 -2 37 -6 13 -3 22 11 34 11 9 17 23 14 30 -3 8 1 14 8 14 8 1 30
14 49 30 31 27 35 28 44 13 5 -9 10 -51 12 -92 5 -145 24 -527 30 -623 4 -54
4 -98 0 -98 -4 0 -38 18 -76 39 -71 41 -84 39 -69 -9 14 -43 30 -623 17 -631
-6 -4 -97 -7 -202 -8 -105 -1 -470 -6 -811 -11 -341 -5 -771 -10 -956 -10
-335 0 -433 -5 -423 -21 4 -8 5 -646 0 -885 l-1 -82 136 -12 c175 -15 210 -12
227 19 10 19 10 26 0 32 -9 6 -9 11 0 21 6 8 9 24 5 36 -3 14 1 30 12 42 16
18 16 20 1 35 -12 12 -14 27 -9 58 3 23 10 43 15 45 4 2 8 8 8 13 0 6 -5 7
-12 3 -8 -5 -9 -2 -5 9 3 9 2 19 -4 23 -6 4 -6 11 2 20 6 8 9 17 6 21 -4 3 0
11 8 17 8 6 15 33 17 63 2 43 6 53 21 53 10 0 17 8 17 19 0 11 5 23 10 26 6 4
8 15 5 26 -4 11 -2 19 5 19 6 0 16 13 21 30 11 31 37 40 104 39 17 -1 106 0
199 1 93 1 172 -2 176 -7 4 -4 13 -161 19 -347 6 -186 12 -341 14 -342 7 -8
97 -13 320 -19 l227 -7 0 22 c0 15 5 20 18 18 9 -2 16 -11 16 -20 -2 -23 37
-26 400 -33 165 -3 303 -8 308 -11 4 -3 8 11 8 30 0 19 -4 38 -10 41 -16 10
-125 17 -310 18 l-175 2 -6 50 c-4 28 -10 145 -13 260 -4 116 -9 224 -12 241
-10 66 -17 64 245 64 l238 0 -5 161 c-3 110 -1 164 6 171 25 25 39 -55 51
-287 7 -126 16 -302 21 -390 6 -88 10 -206 10 -262 l0 -103 31 0 32 0 -7 81
c-11 139 -36 541 -36 598 0 45 2 52 14 42 15 -13 38 -100 30 -113 -3 -4 -2
-14 3 -20 4 -8 10 33 13 92 l5 105 13 -130 c7 -71 18 -240 25 -375 7 -142 16
-244 21 -242 11 3 10 62 -4 202 -5 52 -10 190 -12 305 l-3 210 45 6 c48 6 46
10 -9 12 -49 3 -50 31 -1 46 31 9 39 17 45 44 l7 32 14 -30 c7 -16 13 -50 12
-75 -1 -42 24 -481 38 -651 l6 -76 -37 -7 c-20 -4 -39 -14 -42 -22 -3 -8 -19
-14 -40 -14 -30 0 -34 -2 -23 -15 10 -12 10 -18 0 -30 -6 -8 -9 -27 -6 -42 3
-15 8 -84 11 -153 2 -69 7 -161 10 -205 3 -44 7 -134 10 -199 l5 -119 -197 7
c-253 8 -417 16 -468 21 -22 3 -92 7 -155 10 -251 11 -384 24 -389 38 -2 6
-14 21 -27 34 -40 40 -173 26 -159 -16 6 -18 -1 -19 -167 -15 -144 4 -314 13
-583 30 -22 1 -110 5 -195 9 -85 3 -159 11 -165 16 -5 5 -13 9 -17 9 -12 0
-10 -38 2 -45 6 -3 10 -35 10 -71 0 -48 -3 -64 -14 -64 -8 0 -17 11 -20 25 -7
27 -36 35 -36 10 0 -8 -4 -15 -10 -15 -5 0 -10 9 -10 19 0 27 -14 33 -43 20
-21 -9 -28 -7 -52 15 -20 18 -32 23 -39 16 -18 -18 -44 -11 -50 15 -6 24 -8
25 -28 11 -25 -18 -48 -6 -48 24 0 16 -19 18 -213 22 -191 4 -216 6 -239 24
-30 22 -42 60 -22 68 17 7 7 36 -12 36 -8 0 -14 -9 -14 -20 0 -20 -1 -20 -25
-3 -13 10 -27 25 -30 33 -8 19 23 41 50 34 13 -3 27 2 39 15 22 25 36 27 36 6
0 -21 17 -19 30 5 9 16 5 24 -20 48 -22 22 -27 31 -18 40 9 9 9 15 0 24 -7 7
-12 21 -12 33 -1 18 -3 17 -24 -8 -18 -23 -24 -25 -29 -14 -3 8 3 23 13 32 21
19 17 43 -5 25 -16 -13 -63 3 -71 24 -14 35 99 134 117 104 4 -7 11 -9 16 -5
4 4 2 17 -5 27 -17 28 -15 32 9 25 17 -6 20 -4 15 13 -5 14 4 29 34 58 l40 39
152 -3 c84 -1 197 -5 251 -8 l97 -7 0 58 0 57 39 -7 c46 -8 62 8 34 33 -11 9
-22 25 -26 35 -3 9 -13 17 -20 17 -23 0 -27 48 -27 321 l0 259 -162 1 c-90 1
-179 1 -199 0 l-37 -2 2 65 c1 48 6 71 20 87 13 16 20 18 26 10 5 -9 9 -5 13
11 9 32 9 36 -5 35 -7 0 -26 1 -43 2 -23 1 -27 3 -15 11 8 5 10 10 4 10 -5 0
-15 -5 -20 -10 -6 -6 -25 -15 -43 -20 -25 -7 -33 -6 -38 6 -5 15 -43 20 -43 6
0 -12 50 -33 61 -26 6 3 21 3 34 0 23 -6 23 -9 22 -96 l-2 -90 -143 0 c-131 0
-148 2 -196 24 -30 14 -70 28 -90 31 -20 4 -39 11 -42 16 -3 5 -17 9 -32 9
-47 1 -137 37 -136 55 2 15 0 15 -15 1 -16 -14 -24 -14 -91 0 -41 8 -76 17
-79 20 -2 2 -10 -1 -17 -7 -13 -11 -54 4 -54 19 0 4 -17 8 -38 9 -29 1 -33 0
-19 -8 21 -12 13 -29 -13 -29 -10 0 -21 -4 -24 -8 -3 -5 37 -8 89 -8 51 1 97
-2 101 -6 4 -5 -3 -17 -16 -28 -19 -16 -26 -17 -44 -7 -11 6 -30 12 -41 13
-11 0 -44 1 -73 2 -29 1 -51 6 -48 11 3 5 -5 11 -19 13 -14 3 -25 1 -25 -3 0
-5 -4 -9 -10 -9 -5 0 -6 7 -3 17 4 11 3 14 -5 9 -7 -4 -12 -13 -12 -20 0 -19
-30 -42 -72 -56 -21 -6 -38 -16 -38 -22 0 -6 8 -7 18 -3 40 16 72 23 67 14
-10 -16 5 -10 27 11 12 10 25 17 29 14 5 -3 18 0 29 6 15 8 25 8 34 1 7 -6 15
-9 18 -6 9 9 122 -15 129 -27 5 -7 7 -23 4 -35 -2 -15 1 -23 11 -23 8 0 14 8
14 18 0 19 18 42 32 42 4 0 8 -6 8 -12 0 -9 16 -13 47 -13 l48 0 -2 -45 -2
-45 14 30 c8 17 14 35 15 42 0 6 9 9 21 6 11 -3 18 -11 15 -19 -4 -10 1 -10
27 0 18 8 37 11 44 9 13 -5 10 -330 -3 -523 -4 -52 -6 -107 -5 -122 2 -17 -2
-28 -9 -28 -9 0 -9 -4 1 -16 11 -14 10 -19 -10 -34 -13 -9 -32 -15 -41 -13
-10 3 -21 -1 -25 -8 -5 -7 -4 -10 2 -6 6 4 18 -4 27 -18 9 -14 13 -26 9 -26
-5 -1 20 -5 55 -9 77 -9 99 -25 76 -58 -12 -18 -25 -22 -65 -22 -42 0 -49 -3
-49 -20 0 -13 5 -18 15 -14 11 5 15 -1 15 -24 0 -22 6 -32 21 -37 11 -4 19
-14 17 -23 -4 -22 -94 -25 -119 -4 -25 21 -24 35 1 27 20 -6 28 9 10 20 -17
10 -11 36 13 56 l22 19 -27 -13 c-15 -6 -32 -24 -37 -39 -6 -16 -14 -28 -19
-28 -11 0 -52 43 -52 55 0 5 6 1 13 -9 11 -16 13 -14 11 11 -1 15 -3 34 -3 41
-1 6 -14 12 -30 12 -16 0 -34 7 -41 15 -7 8 -22 14 -34 14 -17 -1 -17 -2 -3
-6 26 -7 21 -18 -18 -39 -19 -10 -35 -21 -35 -24 0 -3 4 -22 9 -42 13 -54 -5
-48 -32 10 -32 68 -96 152 -116 152 -9 0 -27 -7 -40 -16 -17 -13 -36 -15 -74
-10 -46 5 -54 3 -78 -20 -54 -51 -15 -82 98 -78 69 2 74 1 92 -24 10 -15 28
-57 39 -94 21 -71 17 -88 -23 -88 -22 0 -47 -13 -46 -24 4 -27 -1 -34 -19 -29
-15 4 -20 0 -20 -15 0 -12 5 -24 10 -27 6 -3 10 -1 10 4 0 6 9 11 20 11 24 0
26 -17 3 -42 -15 -17 -15 -18 0 -18 21 0 21 -9 2 -38 -14 -20 -14 -21 0 -16
18 7 20 -17 3 -34 -10 -10 -10 -15 2 -22 13 -9 13 -11 0 -20 -17 -11 -40 12
-40 40 0 47 -40 29 -41 -19 -1 -20 -3 -28 -6 -18 -5 20 -33 23 -33 3 0 -7 10
-25 21 -40 12 -15 19 -30 15 -33 -3 -3 -1 -12 5 -19 8 -10 6 -20 -10 -40 l-21
-27 0 25 c0 21 -5 26 -27 26 -16 0 -33 -5 -40 -10 -9 -7 -12 0 -11 24 0 18 -2
45 -5 61 -4 20 -1 27 10 27 12 0 14 8 10 35 -3 20 -2 33 2 31 4 -3 13 0 21 5
13 8 12 12 -4 24 -11 8 -25 15 -30 15 -13 1 -51 50 -38 50 5 0 20 -9 34 -20
27 -21 79 -22 86 -2 2 7 -5 16 -17 19 -12 3 -21 12 -21 19 0 9 -11 14 -29 14
-20 0 -30 6 -34 20 -4 16 0 20 20 20 15 0 22 4 17 11 -4 7 -23 9 -51 5 -42 -5
-44 -5 -38 15 5 16 -1 29 -27 53 -25 24 -32 38 -30 59 3 24 1 28 -16 23 -14
-5 -22 0 -30 19 -6 14 -17 25 -23 25 -8 0 -7 5 2 16 12 15 10 16 -19 10 -22
-5 -32 -4 -32 4 0 10 -4 9 -15 0 -21 -18 -27 -8 -15 25 9 22 7 30 -7 40 -16
12 -16 14 -1 29 10 10 24 13 35 9 16 -6 16 -5 4 10 -7 9 -23 17 -35 17 -17 1
-18 2 -6 9 39 22 57 21 68 -3 6 -14 7 -26 3 -28 -5 -2 -5 -12 -1 -23 7 -19 8
-18 18 7 13 33 32 45 43 27 5 -9 2 -17 -9 -23 -26 -14 -26 -14 -12 -31 10 -13
9 -15 -7 -15 -36 0 -33 -13 8 -37 23 -13 43 -23 45 -23 10 0 2 25 -14 43 -16
19 -16 20 0 14 21 -8 34 11 19 26 -15 15 -14 27 2 27 8 0 22 18 32 40 17 39
17 41 0 60 -12 13 -22 17 -29 11 -7 -6 -17 -6 -26 0 -13 8 -12 12 4 24 17 13
18 15 3 15 -9 0 -17 5 -17 10 0 6 9 10 20 10 11 0 20 -7 20 -15 0 -8 6 -15 14
-15 8 0 22 -20 33 -45 10 -25 22 -45 27 -45 14 0 -2 74 -19 86 -14 10 -14 12
0 18 23 9 18 23 -15 38 -30 13 -42 48 -17 48 22 0 -17 20 -40 20 -13 0 -23 5
-23 10 0 18 -18 10 -23 -10 -6 -25 -29 -27 -26 -2 4 45 -8 54 -36 26 -20 -20
-30 -12 -16 13 10 18 24 68 25 88 1 10 26 34 37 35 7 0 17 -26 28 -70 5 -17
12 -24 25 -22 11 2 30 -2 43 -9 12 -7 26 -10 29 -6 10 10 -6 27 -27 27 -14 0
-19 7 -19 25 0 16 6 25 16 25 8 0 13 4 9 10 -3 5 -12 7 -20 3 -19 -7 -19 -2 0
33 9 17 26 32 42 35 l28 7 -31 1 c-25 1 -33 6 -38 26 -6 24 -36 36 -36 15 0
-5 -7 -10 -15 -10 -19 0 -19 -16 0 -24 8 -3 15 -16 15 -30 0 -20 -5 -24 -25
-23 -14 1 -29 7 -33 13 -13 20 -53 37 -64 26 -6 -6 -6 -12 1 -16 19 -12 12
-35 -9 -33 -17 1 -20 8 -18 57 0 30 3 48 6 40 6 -18 23 -30 34 -24 14 9 9 22
-9 27 -16 4 -16 5 -2 6 9 0 19 8 23 16 6 17 -7 19 -34 5 -13 -7 -19 -6 -24 6
-3 8 -2 12 3 9 5 -3 12 -1 16 5 9 14 31 12 48 -5 13 -12 15 -12 20 6 4 16 2
19 -15 13 -17 -5 -18 -3 -9 15 14 25 4 27 -27 5 -19 -13 -28 -14 -53 -4 -39
16 -51 4 -20 -21 23 -19 23 -20 5 -33 -14 -11 -16 -17 -7 -28 9 -10 7 -27 -6
-68 -16 -50 -21 -55 -47 -55 -23 0 -30 -5 -32 -24 -2 -15 3 -28 12 -33 25 -14
19 -28 -11 -29 -24 -2 -25 -2 -5 -6 25 -5 30 -31 7 -39 -17 -7 -53 1 -75 16
-12 8 -12 12 -2 18 18 12 -13 38 -56 47 -28 6 -31 9 -21 22 10 12 10 16 -2 24
-19 12 -39 11 -39 -2 0 -6 -9 -8 -21 -4 -18 6 -20 4 -14 -14 5 -17 2 -21 -14
-21 -24 0 -25 3 -12 28 31 61 50 132 34 132 -3 0 -14 -7 -23 -15 -15 -14 -18
-14 -30 0 -11 14 -10 17 8 22 26 6 28 19 7 40 -9 8 -14 23 -12 32 3 16 9 17
40 6 11 -5 17 -2 17 8 0 9 -14 17 -37 22 -27 5 -33 9 -22 15 10 7 11 12 2 21
-19 19 -3 39 31 40 l31 1 -27 10 c-33 12 -38 45 -7 56 20 8 20 8 1 25 -18 17
-21 17 -36 2 -10 -11 -14 -25 -10 -41 5 -18 2 -24 -11 -24 -10 0 -15 5 -12 13
3 9 -7 12 -33 12 -28 0 -44 -7 -59 -25 -17 -21 -22 -23 -30 -10 -8 11 -6 17 7
21 9 3 17 16 17 30 0 19 6 25 28 27 22 3 27 7 22 23 -8 26 7 24 23 -2 10 -15
17 -18 24 -11 8 8 2 18 -18 36 -22 19 -25 25 -12 26 9 0 20 -5 23 -11 4 -6 14
-8 22 -4 9 3 23 -1 32 -9 14 -13 24 -13 66 -2 l50 13 -33 7 c-35 8 -39 15 -20
34 9 9 7 12 -10 12 -14 0 -20 5 -16 14 4 11 -1 11 -30 2 -31 -9 -33 -12 -20
-27 19 -22 18 -29 -7 -29 -28 0 -99 40 -99 57 0 15 44 28 61 18 7 -5 10 -3 7
6 -3 8 -18 14 -36 14 -36 0 -37 2 -17 29 8 11 15 23 15 28 0 14 -28 9 -34 -7
-6 -17 -36 -21 -36 -5 0 6 -12 10 -26 10 -17 0 -28 -6 -31 -20 -5 -19 -68 -46
-100 -43 -7 0 -13 -5 -13 -13 0 -8 -5 -14 -11 -14 -7 0 -22 -11 -35 -25 -29
-31 -61 -35 -42 -6 17 28 -7 55 -42 47 -19 -3 -32 1 -44 16 -10 11 -15 23 -11
26 3 4 9 2 13 -4 4 -7 24 -9 52 -5 28 4 40 9 33 14 -7 5 -13 17 -13 28 0 11
-10 23 -24 29 -23 8 -24 12 -13 39 6 16 20 32 30 35 13 3 18 10 14 20 -7 18 8
22 19 5 4 -8 9 -7 15 2 13 21 11 27 -11 34 -28 9 -26 45 3 46 20 1 20 2 2 6
-11 3 -26 10 -33 16 -11 9 -13 6 -10 -13 3 -23 0 -25 -37 -25 -22 0 -43 -4
-47 -10 -4 -6 -13 -2 -21 9 -14 19 -15 19 -55 0 -23 -10 -42 -23 -42 -27 0 -4
9 -3 20 3 14 8 26 8 40 0 34 -18 24 -37 -25 -44 -48 -8 -66 -22 -40 -32 9 -4
14 -13 11 -20 -4 -10 3 -14 24 -14 17 0 30 -4 30 -10 0 -5 -11 -10 -24 -10
-13 0 -32 -3 -41 -6 -11 -5 -16 -2 -15 7 5 31 -1 39 -30 39 -16 0 -30 -3 -30
-7 0 -10 -47 -32 -54 -26 -3 3 1 12 9 20 8 8 15 19 15 24 0 14 -20 11 -26 -5
-7 -19 -61 -31 -78 -17 -18 15 -86 -5 -86 -26 0 -13 3 -14 12 -5 18 18 30 14
23 -7 -4 -14 0 -21 15 -26 21 -7 27 -30 10 -40 -6 -3 -10 3 -10 14 0 21 -24
29 -34 12 -11 -17 -53 -18 -73 -1 l-21 17 20 12 c35 22 5 36 -31 15 -17 -10
-34 -15 -38 -11 -11 12 20 37 52 43 16 3 35 10 42 16 7 6 22 8 33 5 10 -3 24
1 31 9 7 9 17 11 28 4 19 -10 45 2 47 22 0 7 2 23 2 34 1 12 11 24 22 27 11 3
20 11 20 17 0 9 -13 11 -45 8 -25 -3 -45 -2 -45 3 0 15 -19 10 -41 -12 -11
-11 -26 -19 -32 -16 -7 2 -21 1 -32 -3 -19 -6 -18 -8 5 -20 14 -8 40 -13 58
-11 18 1 32 -3 32 -9 0 -7 -8 -9 -19 -5 -11 3 -25 -1 -34 -10 -9 -8 -28 -15
-44 -15 -16 0 -34 -5 -41 -12 -9 -9 -16 -7 -32 10 -12 12 -27 22 -35 22 -27 0
-16 17 15 24 17 3 30 11 30 17 0 6 -7 9 -15 6 -8 -4 -17 -1 -21 4 -3 6 -15 9
-25 6 -16 -4 -17 -2 -8 14 7 15 6 21 -5 25 -24 9 -69 0 -74 -15 -3 -10 2 -12
22 -7 14 3 27 3 27 -1 10 -66 1 -86 -26 -63 -11 9 -20 5 -44 -19 -23 -24 -35
-29 -51 -23 -21 8 -21 8 7 38 15 17 34 33 42 35 9 3 12 12 8 23 -5 13 -14 17
-32 12 -14 -4 -25 -2 -25 4 0 5 6 10 13 11 6 0 -9 7 -35 14 -48 13 -132 14
-144 2 -11 -10 -84 -9 -84 2 0 21 31 31 86 29 62 -3 125 16 121 36 -1 7 9 10
26 8 18 -2 26 1 22 7 -3 6 -21 11 -38 11 -49 0 -64 14 -36 34 13 9 29 16 36
16 7 0 13 4 13 8 0 13 -23 32 -39 32 -13 -1 -13 -3 2 -14 16 -12 16 -14 1 -20
-22 -9 -74 -7 -74 2 0 10 -42 8 -58 -2 -7 -4 -9 -12 -6 -18 5 -7 0 -9 -14 -6
-12 4 -22 3 -22 -2 0 -13 52 -22 63 -11 6 6 19 11 29 11 16 0 20 -5 17 -26 0
-3 8 -12 18 -20 16 -12 16 -13 1 -14 -9 0 -20 5 -23 10 -4 6 -23 8 -43 6 -20
-2 -45 0 -55 6 -24 12 -77 0 -77 -17 0 -9 6 -12 15 -9 10 4 15 0 15 -10 0 -9
-7 -19 -15 -22 -13 -5 -15 -165 -15 -1310 l0 -1304 3840 0 3840 0 0 445 -1
445 -32 -3 c-43 -4 -57 -14 -50 -34 5 -12 3 -14 -6 -8 -9 5 -11 19 -8 41 4 25
2 34 -9 34 -8 0 -14 -7 -14 -16 0 -11 -6 -14 -20 -9 -16 5 -20 2 -20 -19 0
-22 -3 -24 -22 -17 -16 6 -25 19 -28 42 -5 32 -7 34 -37 31 -29 -3 -33 -1 -33
20 1 20 2 21 11 5 12 -20 39 -23 39 -4 0 12 -44 37 -67 37 -7 0 -13 7 -13 15
0 8 -4 15 -10 15 -15 0 -50 38 -50 55 0 7 -8 19 -17 25 -11 7 -14 13 -7 16 15
7 5 53 -17 75 -15 15 -18 15 -23 3 -3 -9 -10 -12 -16 -9 -5 3 -10 1 -10 -6 0
-16 -15 -1 -15 14 0 7 -8 11 -18 9 -10 -2 -17 3 -17 12 0 10 6 13 17 9 11 -4
14 -3 9 5 -9 15 -7 15 33 1 26 -9 35 -8 49 4 13 12 35 14 88 12 38 -2 77 1 85
6 7 5 12 9 9 9 -10 1 -116 9 -204 16 -76 5 -89 9 -94 26 -3 12 -10 17 -20 13
-8 -3 -19 0 -24 7 -6 10 -8 9 -8 -3 0 -9 -9 -19 -20 -22 -17 -4 -18 -2 -9 15
12 22 3 40 -10 19 -5 -8 -11 -9 -15 -3 -3 5 1 15 9 22 8 7 15 18 15 24 0 6 -7
2 -15 -8 -8 -11 -18 -16 -22 -13 -4 4 -1 13 5 19 17 17 15 59 -3 85 -9 12 -32
25 -52 29 -41 8 -58 -10 -58 -60 0 -16 -6 -31 -14 -34 -8 -3 -11 0 -7 6 3 6 0
13 -6 15 -9 4 -9 6 -1 6 8 1 8 8 -2 29 -7 15 -16 85 -20 166 -3 77 -9 144 -12
150 -10 15 -12 197 -3 220 8 19 9 19 9 2 1 -15 3 -16 16 -6 9 7 14 19 11 26
-8 21 29 24 305 31 l265 6 20 -25 c10 -13 25 -23 32 -20 6 2 15 -3 18 -12 6
-16 25 -23 23 -8 -3 19 2 23 17 11 8 -7 33 -14 55 -16 33 -4 39 -1 39 16 0 17
-5 19 -34 14 -19 -3 -36 -1 -40 6 -4 6 -19 11 -34 11 -19 0 -23 3 -15 11 6 6
35 9 67 7 l56 -3 0 1192 0 1191 -62 -3 c-35 -2 -126 -9 -203 -14 -155 -12
-204 -11 -208 4 -2 11 32 17 286 44 98 11 181 22 184 25 18 17 13 17 -403 -31
l-52 -6 -5 54 c-3 30 -8 74 -11 99 -3 25 -8 71 -11 102 -7 65 -20 96 -80 188
-24 36 -71 112 -105 170 -34 58 -86 139 -114 181 -66 96 -193 307 -201 334 -6
18 -5 18 5 2 10 -16 13 -16 27 -1 11 11 18 12 23 4 4 -6 14 -8 22 -5 9 4 19 1
23 -5 5 -8 11 -6 19 5 8 11 30 18 61 20 40 3 52 0 63 -16 10 -15 17 -17 33 -9
25 14 36 7 44 -31 8 -34 50 -85 59 -70 3 5 15 7 26 4 14 -4 20 0 20 12 0 17 1
17 19 1 15 -14 19 -14 24 -3 3 8 15 17 27 20 26 7 38 -16 20 -38 -26 -32 3
-16 51 28 25 23 61 23 52 0 -5 -14 0 -12 26 6 21 15 38 20 49 15 9 -4 21 -6
25 -5 4 0 10 -6 13 -14 4 -10 14 -13 30 -9 21 6 24 3 24 -25 0 -26 -3 -30 -22
-28 -18 2 -22 -2 -20 -20 3 -20 -1 -21 -67 -20 -66 2 -92 -5 -78 -20 4 -3 18
-1 31 4 19 10 27 7 50 -14 15 -14 33 -22 41 -19 8 3 20 0 27 -7 7 -7 27 -13
43 -14 17 -1 67 -4 113 -7 l82 -5 0 45 c0 46 -9 54 -30 28 -10 -11 -23 -14
-52 -9 -28 5 -46 2 -63 -9 -18 -12 -25 -13 -25 -4 0 9 -3 9 -12 0 -15 -15 -38
-16 -38 -2 0 14 29 44 55 58 16 8 24 7 40 -6 19 -16 19 -16 6 1 -19 24 -11 28
27 17 28 -7 32 -6 30 8 -2 11 4 17 17 18 11 1 26 2 33 3 10 1 12 201 12 981 0
539 -2 980 -4 980 -3 0 -14 -12 -25 -27z m-1671 -283 c0 -5 -4 -10 -10 -10 -5
0 -10 5 -10 10 0 6 5 10 10 10 6 0 10 -4 10 -10z m-123 -36 c-3 -3 -12 -4 -19
-1 -8 3 -5 6 6 6 11 1 17 -2 13 -5z m-877 -304 c0 -5 -2 -10 -4 -10 -3 0 -8 5
-11 10 -3 6 -1 10 4 10 6 0 11 -4 11 -10z m-540 -380 c0 -5 -2 -10 -4 -10 -3
0 -8 5 -11 10 -3 6 -1 10 4 10 6 0 11 -4 11 -10z m280 -384 c0 -2 -7 -9 -15
-16 -12 -10 -15 -10 -15 4 0 9 7 16 15 16 8 0 15 -2 15 -4z m-50 -56 c0 -5 -2
-10 -4 -10 -3 0 -8 5 -11 10 -3 6 -1 10 4 10 6 0 11 -4 11 -10z m75 -60 c3 -5
-1 -10 -10 -10 -9 0 -13 5 -10 10 3 6 8 10 10 10 2 0 7 -4 10 -10z m1735 -200
c9 -16 8 -20 -7 -21 -15 0 -14 -2 5 -11 23 -12 30 -28 11 -28 -7 0 -8 -7 -4
-17 10 -26 34 -226 28 -236 -9 -15 7 -57 22 -57 19 0 19 -14 0 -34 -8 -8 -12
-22 -9 -30 5 -14 -3 -16 -55 -16 -54 0 -76 10 -53 24 4 2 9 19 10 37 1 17 11
44 22 58 10 15 20 45 22 67 3 38 2 39 -32 42 -19 1 -123 -9 -230 -23 -414 -53
-1271 -149 -1490 -166 -233 -19 -222 -20 -242 24 -16 32 -23 37 -52 37 -19 0
-37 4 -40 9 -6 9 33 27 74 34 17 3 14 5 -12 6 -56 2 -46 16 25 33 62 16 62 16
20 17 -43 1 -58 15 -25 25 68 19 418 69 727 102 77 9 169 19 205 24 319 40
727 86 895 101 66 5 127 11 135 13 32 8 40 5 50 -14z m580 -130 c0 -12 -28
-25 -36 -17 -9 9 6 27 22 27 8 0 14 -5 14 -10z m60 0 c0 -5 -5 -10 -11 -10 -5
0 -7 5 -4 10 3 6 8 10 11 10 2 0 4 -4 4 -10z m395 -110 c-4 -12 -9 -19 -12
-17 -3 3 -2 15 2 27 4 12 9 19 12 17 3 -3 2 -15 -2 -27z m-3368 -2 c-3 -8 -6
-5 -6 6 -1 11 2 17 5 13 3 -3 4 -12 1 -19z m33 -32 c0 -9 20 -16 65 -21 36 -3
65 -11 65 -16 0 -6 5 -7 10 -4 16 10 12 -2 -12 -40 -13 -19 -31 -35 -42 -35
-10 0 -32 -12 -50 -27 l-31 -26 -3 23 c-2 12 2 26 8 30 7 4 10 16 7 26 -4 17
-6 17 -12 -3 -4 -13 -11 -23 -16 -23 -5 0 -9 -16 -9 -36 0 -21 -4 -33 -10 -29
-5 3 -10 43 -9 88 1 50 4 72 8 57 6 -23 8 -23 14 -6 4 10 5 27 2 37 -4 11 -2
19 4 19 6 0 11 -6 11 -14z m2385 -32 c11 -17 12 -25 4 -22 -6 2 -16 14 -20 26
-11 29 -5 28 16 -4z m45 -54 c0 -5 -5 -10 -11 -10 -5 0 -7 5 -4 10 3 6 8 10
11 10 2 0 4 -4 4 -10z m-55 -69 c3 -5 1 -12 -5 -16 -5 -3 -10 1 -10 9 0 18 6
21 15 7z m71 -43 c3 -3 -1 -19 -10 -35 -12 -24 -12 -30 -1 -30 7 0 11 6 8 14
-10 24 11 13 44 -24 18 -21 33 -44 33 -50 0 -7 5 -13 10 -13 6 0 10 -6 10 -12
-1 -7 -9 -3 -19 10 -28 33 -35 27 -10 -8 17 -23 26 -27 36 -19 18 16 17 1 -2
-17 -8 -9 -15 -21 -15 -27 0 -7 4 -6 10 3 5 8 10 11 10 5 0 -5 -4 -16 -9 -23
-6 -11 -14 -6 -30 17 -12 17 -19 36 -15 42 4 7 3 9 -4 6 -13 -9 -77 77 -95
129 l-13 40 28 -1 c15 -1 30 -4 34 -7z m94 -54 c0 -2 -7 -4 -15 -4 -8 0 -15 4
-15 10 0 5 7 7 15 4 8 -4 15 -8 15 -10z m20 -28 c0 -8 -6 -16 -14 -19 -10 -4
-12 0 -9 14 6 22 23 26 23 5z m-2853 -279 c-2 -139 -6 -258 -10 -264 -4 -6
-30 -11 -59 -11 -44 -1 -223 -16 -662 -59 l-69 -6 6 49 c4 27 10 140 13 251
l7 203 31 5 c37 6 435 51 586 66 58 5 110 12 115 14 6 2 18 4 28 4 16 1 17
-15 14 -252z m2964 154 c-7 -5 -11 -14 -7 -20 4 -6 1 -9 -7 -5 -12 4 -12 10
-3 29 7 16 14 21 21 14 6 -6 5 -13 -4 -18z m-91 -11 c0 -5 -4 -10 -10 -10 -5
0 -10 5 -10 10 0 6 5 10 10 10 6 0 10 -4 10 -10z m20 -30 c0 -5 -2 -10 -4 -10
-3 0 -8 5 -11 10 -3 6 -1 10 4 10 6 0 11 -4 11 -10z m-16 -46 c3 -8 2 -12 -4
-9 -6 3 -10 10 -10 16 0 14 7 11 14 -7z m203 -85 c0 -21 -3 -26 -9 -16 -4 9
-5 22 -2 31 9 23 11 20 11 -15z m-607 -18 c15 -30 2 -51 -32 -51 -27 0 -30 3
-24 23 3 12 6 28 6 35 0 19 38 14 50 -7z m505 -1 c3 -5 1 -10 -4 -10 -6 0 -11
5 -11 10 0 6 2 10 4 10 3 0 8 -4 11 -10z m35 -86 c0 -11 -49 48 -50 59 0 5 11
-5 25 -21 14 -17 25 -34 25 -38z m5 48 c-3 -3 -11 0 -18 7 -9 10 -8 11 6 5 10
-3 15 -9 12 -12z m121 -25 c0 -13 -6 -24 -13 -24 -8 0 -8 7 0 24 13 29 15 29
13 0z m-36 -47 c0 -15 30 -12 31 3 0 6 5 -1 10 -17 9 -33 3 -48 -11 -26 -6 8
-10 11 -10 6 0 -5 -10 -1 -21 10 -21 19 -22 19 -15 -3 16 -50 -21 -49 -45 1
-9 19 -9 20 4 4 8 -10 20 -18 27 -18 10 0 10 3 -1 16 -10 13 -10 17 2 25 19
12 29 11 29 -1z m2 -102 c-7 -7 -12 -8 -12 -2 0 14 12 26 19 19 2 -3 -1 -11
-7 -17z m81 -62 c12 -9 14 -16 8 -21 -6 -3 -11 -11 -11 -17 0 -6 9 -3 20 7 11
10 20 13 20 7 0 -6 -9 -16 -19 -22 -16 -8 -23 -5 -40 19 -12 16 -21 32 -21 35
0 11 24 6 43 -8z m87 -16 c0 -5 -5 -10 -11 -10 -5 0 -7 5 -4 10 3 6 8 10 11
10 2 0 4 -4 4 -10z m-40 -90 c6 -11 8 -20 6 -20 -3 0 -10 9 -16 20 -6 11 -8
20 -6 20 3 0 10 -9 16 -20z m-552 -121 c0 -32 -3 -59 -9 -59 -5 0 -9 8 -10 18
-5 90 -4 109 7 105 6 -2 12 -29 12 -64z m2 -126 l-1 -48 -15 27 c-12 23 -12
31 -2 48 7 11 14 20 15 20 2 0 3 -21 3 -47z m-33 -56 c-1 -5 -13 -14 -25 -18
-16 -6 -20 -5 -15 6 3 8 10 12 16 8 6 -4 8 0 4 10 -4 11 -2 14 9 10 8 -3 13
-10 11 -16z m-47 -49 c0 -6 -6 -5 -15 2 -8 7 -15 14 -15 16 0 2 7 1 15 -2 8
-4 15 -11 15 -16z m69 -32 c-9 -8 -10 -7 -5 7 3 10 7 26 7 35 1 9 4 6 6 -7 3
-13 -1 -28 -8 -35z m764 -83 c4 -27 9 -97 13 -156 l7 -108 -49 3 -49 3 -11
145 c-6 80 -9 148 -7 153 2 4 24 7 47 7 l43 0 6 -47z m-213 -3 c0 -20 -5 -30
-15 -30 -17 0 -18 4 -9 38 9 32 24 27 24 -8z m-1276 -240 c-7 -7 -19 -7 -35
-1 -23 9 -22 10 11 10 23 1 31 -2 24 -9z m-1 -27 c-13 -2 -35 -2 -50 0 -16 2
-5 4 22 4 28 0 40 -2 28 -4z m-1223 -48 c0 -10 -10 -15 -32 -15 l-33 1 25 14
c32 18 40 18 40 0z m2171 -413 c5 -135 11 -248 13 -251 2 -3 1 -14 -3 -24 -5
-15 -9 -15 -23 -5 -20 16 -25 63 -34 331 -5 146 -4 197 4 197 7 0 12 10 13 23
l0 22 10 -24 c5 -13 14 -134 20 -269z m-2494 166 c-3 -7 -5 -2 -5 12 0 14 2
19 5 13 2 -7 2 -19 0 -25z m2392 -73 c-1 -36 1 -68 4 -72 4 -3 7 -43 6 -87 0
-59 -3 -76 -10 -61 -7 15 -8 12 -4 -15 3 -23 2 -30 -4 -20 -11 18 -10 91 1 84
4 -3 8 5 8 18 0 18 -2 20 -10 8 -10 -15 -11 -9 -15 107 0 24 2 37 7 30 4 -7 8
6 8 31 0 23 3 42 6 42 3 0 4 -29 3 -65z m501 -348 c9 -59 10 -91 3 -98 -10
-10 -34 156 -32 224 l1 32 8 -35 c4 -19 13 -75 20 -123z m100 -112 c6 -93 13
-183 16 -200 5 -23 3 -27 -6 -18 -8 7 -16 63 -21 145 -4 73 -10 162 -13 196
-2 35 0 60 4 55 5 -4 13 -84 20 -178z m105 45 c3 -5 1 -10 -4 -10 -6 0 -11 5
-11 10 0 6 2 10 4 10 3 0 8 -4 11 -10z m-7215 -350 c0 -5 -5 -10 -11 -10 -5 0
-7 5 -4 10 3 6 8 10 11 10 2 0 4 -4 4 -10z m-65 -20 c-3 -5 -12 -10 -18 -10
-7 0 -6 4 3 10 19 12 23 12 15 0z m195 -30 c0 -5 -4 -10 -10 -10 -5 0 -10 5
-10 10 0 6 5 10 10 10 6 0 10 -4 10 -10z m816 -6 c-3 -9 -6 -18 -6 -20 0 -2
-7 -4 -15 -4 -18 0 -19 12 -3 28 17 17 31 15 24 -4z m-926 -40 c0 -8 -9 -14
-20 -14 -19 0 -27 19 -14 33 10 9 34 -4 34 -19z m-95 -4 c-3 -5 -14 -10 -23
-10 -15 0 -15 2 -2 10 20 13 33 13 25 0z m923 -25 c-2 -21 -6 -23 -28 -18 -32
8 -34 9 -27 28 4 8 18 15 32 15 20 0 24 -4 23 -25z m-837 -15 c10 -1 8 -4 -4
-11 -14 -8 -23 -7 -37 6 -11 10 -17 22 -14 27 3 5 14 2 23 -6 10 -9 24 -16 32
-16z m219 9 c0 -4 -3 -10 -8 -13 -9 -5 -44 19 -36 26 7 8 44 -3 44 -13z m80
11 c0 -5 -2 -10 -4 -10 -3 0 -8 5 -11 10 -3 6 -1 10 4 10 6 0 11 -4 11 -10z
m-240 -20 c0 -5 -4 -10 -10 -10 -5 0 -10 5 -10 10 0 6 5 10 10 10 6 0 10 -4
10 -10z m834 -30 c-6 -6 -15 -6 -24 0 -13 9 -13 11 0 20 18 11 39 -5 24 -20z
m-724 10 c24 -15 7 -18 -20 -3 -14 7 -18 13 -10 13 8 0 22 -4 30 -10z m115 0
c3 -5 1 -10 -4 -10 -6 0 -11 5 -11 10 0 6 2 10 4 10 3 0 8 -4 11 -10z m435 0
c0 -5 -6 -10 -14 -10 -8 0 -18 5 -21 10 -3 6 3 10 14 10 12 0 21 -4 21 -10z
m-112 -34 c3 -13 -5 -16 -37 -16 -42 0 -50 7 -30 27 16 16 63 9 67 -11z m82
-6 c0 -5 -5 -10 -11 -10 -5 0 -7 5 -4 10 3 6 8 10 11 10 2 0 4 -4 4 -10z m80
6 c0 -3 -4 -8 -10 -11 -5 -3 -10 -1 -10 4 0 6 5 11 10 11 6 0 10 -2 10 -4z
m-615 -16 c-28 -12 -37 -12 -30 0 3 6 16 10 28 9 21 0 21 -1 2 -9z m705 -4 c0
-11 -19 -15 -25 -6 -3 5 1 10 9 10 9 0 16 -2 16 -4z m-570 -16 c0 -5 -2 -10
-4 -10 -3 0 -8 5 -11 10 -3 6 -1 10 4 10 6 0 11 -4 11 -10z m640 0 c0 -5 -2
-10 -4 -10 -3 0 -8 5 -11 10 -3 6 -1 10 4 10 6 0 11 -4 11 -10z m-560 -10 c0
-5 -5 -10 -11 -10 -5 0 -7 5 -4 10 3 6 8 10 11 10 2 0 4 -4 4 -10z m330 1 c0
-14 -18 -23 -30 -16 -6 4 -8 11 -5 16 8 12 35 12 35 0z m510 0 c0 -5 -7 -11
-15 -15 -15 -5 -20 5 -8 17 9 10 23 9 23 -2z m-640 -21 c0 -12 -28 -25 -36
-17 -9 9 6 27 22 27 8 0 14 -5 14 -10z m-161 -18 c5 -9 7 -30 4 -45 -4 -22
-11 -27 -34 -27 -16 0 -29 -4 -29 -10 0 -5 -5 -10 -11 -10 -6 0 -9 14 -7 33 2
26 8 33 28 35 26 4 53 22 32 22 -7 0 -12 5 -12 10 0 16 19 11 29 -8z m65 3
c-4 -8 -12 -15 -20 -15 -17 0 -18 17 -1 23 22 9 27 7 21 -8z m28 -7 c-7 -7
-12 -8 -12 -2 0 14 12 26 19 19 2 -3 -1 -11 -7 -17z m746 -16 c2 -7 -2 -13
-10 -14 -14 -1 -30 -5 -38 -8 -17 -6 -52 -5 -56 2 -3 5 -14 6 -25 3 -10 -4
-19 -2 -19 4 0 16 21 24 32 13 8 -8 18 -6 35 8 25 19 73 15 81 -8z m-488 8 c0
-5 -5 -10 -11 -10 -5 0 -7 5 -4 10 3 6 8 10 11 10 2 0 4 -4 4 -10z m-611 -26
c3 -16 1 -17 -13 -5 -19 16 -21 34 -3 29 6 -3 14 -13 16 -24z m-175 -3 c3 -5
-1 -11 -9 -15 -9 -3 -15 0 -15 9 0 16 16 20 24 6z m555 -1 c4 0 7 -12 6 -27 0
-23 -5 -28 -24 -28 -32 0 -49 28 -31 50 7 9 20 13 27 10 8 -3 18 -5 22 -5z
m71 0 c0 -5 -4 -10 -10 -10 -5 0 -10 5 -10 10 0 6 5 10 10 10 6 0 10 -4 10
-10z m338 1 c10 -6 9 -10 -7 -14 -21 -5 -36 5 -24 17 8 8 15 7 31 -3z m-138
-5 c0 -2 -7 -7 -16 -10 -8 -3 -12 -2 -9 4 6 10 25 14 25 6z m1742 -2 c3 -3 4
-14 1 -25 -8 -28 -31 -24 -29 6 1 23 15 33 28 19z m-2225 -26 c-3 -8 -6 -5 -6
6 -1 11 2 17 5 13 3 -3 4 -12 1 -19z m2318 12 c3 -5 18 -10 33 -10 41 0 59
-15 42 -34 -15 -19 -48 -12 -66 12 -9 13 -12 13 -17 -2 -9 -24 -27 -20 -27 7
-1 20 -2 21 -14 5 -7 -10 -19 -18 -26 -18 -8 0 -4 10 10 25 24 26 54 33 65 15z
m-1850 -50 c-19 -21 -35 -18 -35 7 0 9 6 13 15 10 8 -4 17 -2 21 4 3 6 9 8 12
5 3 -3 -3 -15 -13 -26z m295 5 c0 -25 -32 -51 -50 -40 -16 10 -12 25 13 46 30
25 37 24 37 -6z m-120 0 c0 -8 -4 -15 -9 -15 -13 0 -22 16 -14 24 11 11 23 6
23 -9z m46 -12 c-10 -10 -19 5 -10 18 6 11 8 11 12 0 2 -7 1 -15 -2 -18z
m1819 12 c65 -19 95 -47 46 -43 -18 1 -31 8 -31 16 0 11 -4 10 -21 -1 -18 -13
-45 -11 -87 9 -1 1 0 9 4 18 8 20 22 20 89 1z m-2270 -26 c0 -8 -7 -13 -15
-11 -12 3 -13 1 -2 -9 15 -16 16 -39 1 -39 -6 0 -17 7 -25 15 -9 8 -11 15 -5
15 6 0 11 8 11 18 0 10 3 22 7 26 10 10 28 1 28 -15z m-342 -25 c-8 -21 -42
-18 -38 4 2 9 4 18 4 19 1 0 10 -1 20 -4 12 -3 17 -11 14 -19z m156 5 c-22
-14 -33 -10 -19 6 7 8 17 12 22 9 6 -4 5 -10 -3 -15z m4341 10 c0 -6 9 -8 23
-3 28 9 148 13 122 4 -31 -11 102 -18 271 -16 83 2 157 7 165 11 21 13 69 16
69 4 0 -6 11 -8 29 -4 17 3 32 2 36 -4 3 -6 13 -11 21 -11 8 0 12 5 9 10 -3 6
1 10 9 10 8 0 18 -5 22 -11 4 -7 22 -9 45 -6 22 3 39 1 39 -4 0 -6 -151 -10
-377 -11 -208 0 -405 -1 -438 -1 -126 -1 -196 3 -191 12 3 4 30 7 61 5 43 -2
55 0 55 11 0 8 7 15 15 15 8 0 15 -5 15 -11z m397 5 c-3 -3 -12 -4 -19 -1 -8
3 -5 6 6 6 11 1 17 -2 13 -5z m-4632 -14 c-3 -5 -10 -10 -16 -10 -5 0 -9 5 -9
10 0 6 7 10 16 10 8 0 12 -4 9 -10z m445 0 c0 -5 -9 -10 -21 -10 -11 0 -17 5
-14 10 3 6 13 10 21 10 8 0 14 -4 14 -10z m2017 4 c-3 -3 -12 -4 -19 -1 -8 3
-5 6 6 6 11 1 17 -2 13 -5z m-1962 -24 c-3 -5 -10 -10 -16 -10 -5 0 -9 5 -9
10 0 6 7 10 16 10 8 0 12 -4 9 -10z m115 1 c0 -20 -26 -57 -38 -53 -17 5 -15
22 5 44 17 19 33 24 33 9z m4583 2 c-18 -2 -48 -2 -65 0 -18 2 -4 4 32 4 36 0
50 -2 33 -4z m225 0 c-21 -2 -57 -2 -80 0 -24 2 -7 4 37 4 44 0 63 -2 43 -4z
m-4738 -25 c0 -6 -7 -7 -16 -4 -9 3 -20 6 -25 6 -6 0 -8 4 -5 9 8 12 46 2 46
-11z m1670 -18 c0 -11 -4 -20 -10 -20 -5 0 -10 9 -10 20 0 11 5 20 10 20 6 0
10 -9 10 -20z m-2110 6 c0 -3 -4 -8 -10 -11 -5 -3 -10 -1 -10 4 0 6 5 11 10
11 6 0 10 -2 10 -4z m205 -14 c10 2 20 -3 22 -9 3 -9 -5 -13 -24 -13 -16 0
-34 -5 -41 -12 -9 -9 -12 -8 -12 5 0 9 5 17 10 17 6 0 10 8 10 18 0 13 2 14 9
4 4 -8 16 -12 26 -10z m205 -2 c8 -5 11 -12 7 -16 -4 -4 -15 0 -24 9 -18 18
-8 23 17 7z m180 -10 c0 -5 -4 -10 -10 -10 -5 0 -10 5 -10 10 0 6 5 10 10 10
6 0 10 -4 10 -10z m2365 -157 c-4 -93 -7 -187 -6 -211 0 -41 -1 -42 -27 -35
-26 6 -52 30 -73 66 -8 15 -5 17 20 17 17 0 34 -7 38 -15 7 -12 10 -11 21 5
10 16 9 21 -9 31 -12 6 -38 9 -58 7 -29 -4 -43 1 -74 26 -35 27 -40 29 -70 18
-45 -16 -77 -15 -97 3 -15 14 -15 19 -1 64 9 31 21 51 33 54 27 8 22 34 -12
54 -42 24 -42 63 -1 63 16 0 31 -6 34 -12 3 -10 7 -10 20 0 19 16 108 18 136
3 13 -7 22 -8 26 -1 3 5 24 10 45 10 21 0 42 5 45 10 15 25 17 -1 10 -157z
m-3018 135 c-3 -8 -6 -5 -6 6 -1 11 2 17 5 13 3 -3 4 -12 1 -19z m2310 0 c6
-5 13 -21 15 -36 2 -17 10 -28 22 -30 14 -3 17 0 13 12 -6 14 -3 15 13 6 28
-15 53 -57 44 -72 -4 -7 -4 -10 1 -6 12 11 35 -11 35 -32 0 -10 6 -21 13 -24
8 -3 2 -12 -16 -26 -22 -18 -25 -25 -16 -36 16 -20 29 -17 29 6 0 11 4 20 10
20 12 0 31 -35 23 -43 -3 -4 0 -14 7 -22 10 -12 10 -21 1 -41 -10 -23 -10 -26
4 -20 10 3 13 2 10 -5 -4 -5 -16 -7 -26 -4 -11 4 -27 1 -35 -6 -20 -16 -83
-22 -99 -9 -9 8 -15 8 -20 0 -11 -18 -25 -11 -25 13 -1 18 -3 17 -15 -10 -16
-38 -41 -43 -75 -15 -21 17 -21 23 -18 190 3 171 3 173 28 192 25 19 52 18 77
-2z m263 4 c0 -4 16 -6 36 -4 l36 4 -6 -36 c-3 -20 -9 -51 -12 -70 -3 -19 -17
-45 -30 -57 -18 -17 -24 -34 -25 -68 l-1 -46 -10 45 c-17 85 -26 108 -51 141
-10 15 -16 32 -13 38 9 14 46 15 46 1 0 -5 5 -10 10 -10 22 0 8 28 -17 35 -19
4 -29 2 -35 -9 -5 -9 -13 -16 -18 -16 -12 0 -23 37 -15 50 7 12 105 14 105 2z
m-1897 -16 c6 -16 -41 -73 -64 -78 -25 -6 -14 27 13 41 29 14 40 38 13 27 -8
-3 -15 -1 -15 4 0 7 15 14 41 19 4 0 9 -6 12 -13z m4228 -16 c4 -14 7 -78 8
-144 l1 -118 -30 6 c-17 3 -30 1 -30 -4 0 -6 9 -10 19 -10 11 0 23 -4 26 -10
9 -15 -41 -12 -57 3 -7 8 -18 12 -24 10 -7 -2 -21 8 -33 23 -15 19 -27 25 -42
21 -48 -13 -114 46 -78 69 7 4 7 9 2 13 -6 3 -13 41 -17 83 -8 90 -20 83 138
83 109 0 110 0 117 -25z m1789 20 c0 -5 -4 -10 -9 -10 -6 0 -13 5 -16 10 -3 6
1 10 9 10 9 0 16 -4 16 -10z m-6507 -15 c4 -8 2 -17 -3 -20 -6 -4 -10 3 -10
14 0 25 6 27 13 6z m227 -29 c0 -5 -3 -6 -6 -3 -4 3 -18 -3 -32 -13 -34 -28
-38 -19 -10 24 21 32 24 34 36 19 6 -9 12 -21 12 -27z m2010 33 c0 -6 18 -32
39 -58 22 -26 43 -60 47 -76 10 -42 -9 -24 -47 42 -18 31 -40 63 -50 71 -10 9
-16 19 -13 24 8 12 24 10 24 -3z m2050 -1 c0 -10 2 -10 8 -1 10 16 92 14 92
-2 0 -7 -6 -15 -12 -18 -10 -4 -10 -7 0 -18 17 -18 15 -54 -3 -69 -12 -10 -22
-6 -57 22 -24 19 -64 41 -90 48 -26 8 -57 22 -70 32 -23 17 -22 18 55 18 55 0
77 -4 77 -12z m-4390 -32 c0 -7 -6 -21 -14 -32 -11 -14 -18 -16 -26 -8 -9 9
-8 18 5 38 17 25 35 27 35 2z m455 14 c-3 -5 -10 -10 -16 -10 -5 0 -9 5 -9 10
0 6 7 10 16 10 8 0 12 -4 9 -10z m31 -27 c-11 -11 -17 4 -9 23 7 18 8 18 11 1
2 -10 1 -21 -2 -24z m-696 18 c0 -6 -4 -13 -10 -16 -5 -3 -10 1 -10 9 0 9 5
16 10 16 6 0 10 -4 10 -9z m352 -21 c-5 -32 -20 -42 -17 -12 1 16 13 42 19 42
1 0 1 -13 -2 -30z m253 0 c3 -5 1 -10 -4 -10 -6 0 -11 5 -11 10 0 6 2 10 4 10
3 0 8 -4 11 -10z m45 -15 c0 -8 -7 -15 -15 -15 -16 0 -20 12 -8 23 11 12 23 8
23 -8z m180 -10 c0 -8 -7 -15 -15 -15 -9 0 -12 6 -9 15 4 8 10 15 15 15 5 0 9
-7 9 -15z m-770 -15 c0 -11 -4 -20 -10 -20 -5 0 -10 9 -10 20 0 11 5 20 10 20
6 0 10 -9 10 -20z m136 -42 c-9 -5 -16 -18 -16 -28 0 -11 -4 -20 -10 -20 -5 0
-10 11 -10 25 0 24 27 48 44 38 5 -3 1 -10 -8 -15z m224 2 c0 -5 -7 -10 -15
-10 -8 0 -15 5 -15 10 0 6 7 10 15 10 8 0 15 -4 15 -10z m105 0 c3 -5 1 -10
-4 -10 -6 0 -11 5 -11 10 0 6 2 10 4 10 3 0 8 -4 11 -10z m295 -25 c0 -2 -7
-5 -15 -9 -9 -3 -15 0 -15 9 0 9 6 12 15 9 8 -4 15 -7 15 -9z m-782 -30 c-6
-14 -15 -25 -20 -25 -11 0 -10 7 4 30 18 29 30 25 16 -5z m558 -40 c-8 -23
-25 -9 -19 16 4 13 9 17 16 10 5 -5 7 -17 3 -26z m272 -5 c-10 -16 -19 -19
-38 -15 -31 8 -34 11 -25 24 3 6 22 11 41 11 32 0 33 -1 22 -20z m-128 -10 c0
-5 -4 -10 -10 -10 -5 0 -10 5 -10 10 0 6 5 10 10 10 6 0 10 -4 10 -10z m2060
6 c0 -2 -7 -9 -15 -16 -13 -11 -14 -10 -9 4 5 14 24 23 24 12z m182 -33 c10
-9 18 -27 18 -40 0 -17 4 -22 13 -17 8 6 8 3 -2 -9 -10 -13 -17 -14 -33 -6
-14 8 -17 14 -9 22 7 7 5 14 -7 24 -13 11 -14 15 -3 20 11 5 11 7 0 14 -8 5
-10 9 -5 9 5 0 18 -7 28 -17z m-1724 -45 c14 -35 -1 -46 -25 -18 -23 26 -31
25 -43 -6 -14 -36 -6 -43 35 -34 20 4 35 4 35 -1 0 -5 -4 -9 -8 -9 -5 0 -14
-11 -20 -25 -9 -20 -19 -25 -47 -25 -34 0 -49 20 -25 35 6 4 10 12 8 18 -4 23
15 62 41 84 28 23 31 22 49 -19z m1628 0 c19 -21 19 -21 -3 -16 -13 4 -23 2
-23 -3 0 -15 -17 -10 -24 7 -14 37 21 46 50 12z m-2041 2 c3 -5 -1 -10 -9 -10
-9 0 -16 5 -16 10 0 6 4 10 9 10 6 0 13 -4 16 -10z m1970 -17 c4 -16 8 -36 10
-45 2 -14 -4 -18 -31 -18 -39 0 -41 6 -17 55 20 42 31 44 38 8z m179 -50 c19
-12 17 -13 -21 -13 -39 0 -43 2 -43 25 0 24 2 25 21 13 12 -7 31 -19 43 -25z
m-337 2 c-4 -10 -19 -15 -42 -15 -22 0 -34 4 -30 10 3 6 17 10 30 10 13 0 27
5 30 11 10 15 19 3 12 -16z m248 -5 c4 -6 -6 -10 -22 -10 -22 0 -25 2 -13 10
19 12 27 12 35 0z m210 -8 c-3 -3 -11 0 -18 7 -9 10 -8 11 6 5 10 -3 15 -9 12
-12z m-568 2 c-3 -3 -12 -4 -19 -1 -8 3 -5 6 6 6 11 1 17 -2 13 -5z m-1574
-51 c-7 -2 -19 -2 -25 0 -7 3 -2 5 12 5 14 0 19 -2 13 -5z m177 -66 l0 -21
-21 21 c-12 11 -18 26 -14 32 10 17 35 -6 35 -32z m30 -37 c0 -5 -4 -10 -10
-10 -5 0 -10 5 -10 10 0 6 5 10 10 10 6 0 10 -4 10 -10z m-36 -48 c-14 -22
-63 -40 -72 -26 -4 6 -16 16 -27 22 -19 11 -18 11 8 12 15 0 27 3 27 8 0 4 10
12 23 18 30 14 57 -8 41 -34z m190 3 c3 -9 0 -15 -9 -15 -8 0 -15 7 -15 15 0
8 4 15 9 15 5 0 11 -7 15 -15z m1113 -68 c3 -4 15 -7 25 -7 25 0 22 -22 -7
-50 -25 -23 -25 -23 -25 -2 0 13 9 23 23 28 21 7 21 7 2 14 -28 10 -46 -7 -39
-36 5 -19 2 -24 -12 -24 -11 0 -25 4 -32 9 -10 6 -10 10 2 21 10 8 14 21 10
36 -5 20 -3 22 20 20 14 -1 29 -6 33 -9z m3503 -7 c0 -5 -2 -10 -4 -10 -3 0
-8 5 -11 10 -3 6 -1 10 4 10 6 0 11 -4 11 -10z m470 -60 c0 -5 -4 -10 -10 -10
-5 0 -10 5 -10 10 0 6 5 10 10 10 6 0 10 -4 10 -10z m-4015 -41 c10 -16 -26
-50 -49 -47 -12 2 -22 11 -24 21 -3 15 1 17 22 11 20 -5 26 -2 26 10 0 18 15
21 25 5z m-409 -71 c4 -7 3 -8 -5 -4 -6 4 -17 3 -24 -3 -10 -7 -13 -4 -15 15
-2 21 1 23 18 14 10 -5 22 -15 26 -22z m-643 -35 c7 -38 2 -40 -28 -11 -16 16
-23 32 -19 42 9 23 40 3 47 -31z m682 7 c-3 -5 -13 -10 -21 -10 -8 0 -12 5 -9
10 3 6 13 10 21 10 8 0 12 -4 9 -10z m5 -44 c0 -11 -19 -15 -25 -6 -3 5 1 10
9 10 9 0 16 -2 16 -4z m-786 -22 c3 -8 2 -12 -4 -9 -6 3 -10 10 -10 16 0 14 7
11 14 -7z m-879 -26 c16 -19 21 -45 11 -56 -4 -3 -66 29 -66 34 0 8 25 44 30
44 3 0 14 -10 25 -22z m136 -31 c-8 -8 -11 -7 -11 4 0 20 13 34 18 19 3 -7 -1
-17 -7 -23z m759 3 c0 -5 -4 -10 -10 -10 -5 0 -10 5 -10 10 0 6 5 10 10 10 6
0 10 -4 10 -10z m563 -55 c17 -50 17 -50 -35 -60 -32 -6 -37 -4 -37 11 1 11
-2 29 -6 42 -5 14 -3 22 5 22 7 0 10 -7 6 -15 -3 -9 1 -15 11 -15 12 0 14 7
10 30 -5 25 -3 30 12 30 14 0 24 -13 34 -45z m-587 27 c7 -4 11 -23 10 -42 -2
-37 -2 -37 -69 -27 -32 4 -23 22 13 25 19 2 39 7 44 12 6 6 -6 7 -27 3 -33 -5
-37 -3 -37 16 0 16 6 21 28 21 15 0 32 -4 38 -8z m174 -16 c0 -3 -4 -8 -10
-11 -5 -3 -10 -1 -10 4 0 6 5 11 10 11 6 0 10 -2 10 -4z m956 -14 c-3 -5 5 -8
17 -8 13 1 22 -5 22 -14 0 -20 -26 -23 -49 -5 -18 13 -15 35 5 35 6 0 8 -4 5
-8z m-1155 -72 c10 -6 19 -20 19 -30 0 -11 5 -20 11 -20 23 0 3 -89 -27 -123
-16 -18 -32 -36 -35 -40 -10 -13 -69 43 -63 58 3 7 1 16 -5 20 -13 7 -15 75
-3 75 4 0 13 -5 20 -12 9 -9 19 -5 42 18 34 33 38 51 13 57 -10 3 -12 5 -5 6
7 0 22 -4 33 -9z m629 1 c0 -13 -16 -22 -57 -31 -29 -7 -34 -6 -31 8 3 12 13
16 37 14 20 -1 30 2 26 8 -3 5 1 10 9 10 9 0 16 -4 16 -9z m-1500 -41 c0 -14
-7 -20 -22 -20 -20 0 -21 1 -3 20 10 11 20 20 22 20 1 0 3 -9 3 -20z m2051 0
c11 0 17 -9 17 -27 0 -35 -14 -53 -36 -46 -13 4 -14 3 -3 -5 11 -8 11 -14 0
-33 -20 -39 -35 -50 -47 -36 -12 15 -23 99 -12 92 5 -3 21 6 36 20 23 21 25
27 13 42 -11 15 -11 16 1 6 8 -7 22 -13 31 -13z m4459 1 c0 -12 -20 -25 -27
-18 -7 7 6 27 18 27 5 0 9 -4 9 -9z m-4510 -5 c0 -11 -19 -15 -25 -6 -3 5 1
10 9 10 9 0 16 -2 16 -4z m4540 -36 c-19 -15 -22 -22 -12 -28 10 -7 10 -12 -3
-22 -14 -12 -16 -12 -13 2 1 10 -6 24 -17 32 -20 15 -19 15 5 16 14 0 32 5 40
10 26 17 26 10 0 -10z m-5370 -41 c0 -6 -4 -7 -10 -4 -5 3 -10 11 -10 16 0 6
5 7 10 4 6 -3 10 -11 10 -16z m3118 -111 c3 -14 -3 -16 -35 -13 -21 2 -40 5
-43 6 -3 0 -15 0 -27 -1 -15 -1 -23 4 -23 15 0 24 123 18 128 -7z m-2318 -2
c0 -2 -8 -10 -17 -17 -16 -13 -17 -12 -4 4 13 16 21 21 21 13z m75 -17 c6 -9
-11 -43 -37 -72 -16 -19 -17 -19 -39 2 -20 18 -20 21 -6 27 10 3 17 13 17 20
0 34 49 51 65 23z m-24 -112 c-10 -9 -11 -8 -5 6 3 10 9 15 12 12 3 -3 0 -11
-7 -18z"/>
<path d="M4206 5362 c-3 -6 -1 -14 5 -17 15 -10 25 3 12 16 -7 7 -13 7 -17 1z"/>
<path d="M6650 5091 c0 -29 15 -33 16 -5 1 13 -2 24 -7 24 -5 0 -9 -9 -9 -19z"/>
<path d="M7055 4520 c3 -5 8 -10 11 -10 2 0 4 5 4 10 0 6 -5 10 -11 10 -5 0
-7 -4 -4 -10z"/>
<path d="M3302 1744 c-7 -8 -8 -14 -3 -14 10 0 25 19 20 25 -2 1 -10 -3 -17
-11z"/>
<path d="M3270 1685 c0 -16 16 -20 24 -6 3 5 -1 11 -9 15 -9 3 -15 0 -15 -9z"/>
<path d="M5647 1866 c14 -19 19 -21 21 -9 2 9 -2 19 -10 24 -24 16 -29 9 -11
-15z"/>
<path d="M5683 1773 c9 -9 19 -14 23 -11 10 10 -6 28 -24 28 -15 0 -15 -1 1
-17z"/>
<path d="M5410 7000 c0 -6 7 -10 15 -10 8 0 15 2 15 4 0 2 -7 6 -15 10 -8 3
-15 1 -15 -4z"/>
<path d="M4605 6530 c-3 -5 -1 -10 4 -10 6 0 11 5 11 10 0 6 -2 10 -4 10 -3 0
-8 -4 -11 -10z"/>
<path d="M4450 6460 c0 -5 5 -10 10 -10 6 0 10 5 10 10 0 6 -4 10 -10 10 -5 0
-10 -4 -10 -10z"/>
<path d="M4200 6260 c0 -5 5 -10 11 -10 5 0 7 5 4 10 -3 6 -8 10 -11 10 -2 0
-4 -4 -4 -10z"/>
<path d="M4150 6221 c0 -12 5 -21 10 -21 6 0 10 6 10 14 0 8 -4 18 -10 21 -5
3 -10 -3 -10 -14z"/>
<path d="M4210 6222 c-17 -14 -21 -24 -16 -38 7 -18 8 -18 18 -1 5 10 19 22
30 26 17 6 18 9 5 19 -11 10 -19 9 -37 -6z"/>
<path d="M4105 6200 c-19 -7 -19 -7 4 -19 26 -15 31 -12 22 10 -4 11 -12 14
-26 9z"/>
<path d="M4395 6050 c-3 -5 -1 -10 4 -10 6 0 11 5 11 10 0 6 -2 10 -4 10 -3 0
-8 -4 -11 -10z"/>
<path d="M4470 5910 c0 -5 5 -10 10 -10 6 0 10 5 10 10 0 6 -4 10 -10 10 -5 0
-10 -4 -10 -10z"/>
<path d="M4945 5760 c-3 -5 -1 -10 4 -10 6 0 11 5 11 10 0 6 -2 10 -4 10 -3 0
-8 -4 -11 -10z"/>
<path d="M6960 5530 c0 -5 5 -10 11 -10 7 0 9 -10 5 -26 -6 -22 -4 -25 9 -20
9 3 19 6 21 6 14 0 0 30 -21 44 -14 9 -25 12 -25 6z"/>
<path d="M6731 5514 c0 -11 3 -14 6 -6 3 7 2 16 -1 19 -3 4 -6 -2 -5 -13z"/>
<path d="M7355 5461 c-6 -11 9 -23 19 -14 9 9 7 23 -3 23 -6 0 -12 -4 -16 -9z"/>
<path d="M7258 5433 c7 -3 16 -2 19 1 4 3 -2 6 -13 5 -11 0 -14 -3 -6 -6z"/>
<path d="M2910 5325 c0 -29 34 -36 44 -9 10 27 7 34 -19 34 -20 0 -25 -5 -25
-25z"/>
<path d="M1010 5094 c0 -33 33 -30 38 4 3 17 -2 22 -17 22 -16 0 -21 -6 -21
-26z"/>
<path d="M7667 5091 c-2 -10 -1 -25 4 -32 6 -10 9 -4 9 19 0 36 -5 42 -13 13z"/>
<path d="M18 5083 c-15 -4 -18 -17 -18 -89 0 -76 2 -84 19 -84 28 0 38 19 44
82 9 89 1 103 -45 91z"/>
<path d="M7620 5065 c0 -8 5 -15 10 -15 6 0 10 7 10 15 0 8 -4 15 -10 15 -5 0
-10 -7 -10 -15z"/>
<path d="M7485 5030 c-10 -11 -12 -20 -7 -24 6 -3 12 0 15 6 3 9 12 4 26 -14
19 -24 24 -25 58 -16 26 7 42 6 59 -2 26 -14 44 -6 43 18 0 11 -2 12 -6 4 -2
-6 -9 -10 -13 -7 -5 3 -7 12 -3 20 3 10 -1 15 -13 16 -11 1 -40 3 -66 4 -25 1
-53 5 -61 8 -8 3 -23 -3 -32 -13z m85 -31 c0 -5 -7 -9 -15 -9 -15 0 -20 12 -9
23 8 8 24 -1 24 -14z"/>
<path d="M5220 4581 c0 -11 4 -22 9 -25 11 -7 20 14 13 32 -7 19 -22 14 -22
-7z"/>
<path d="M6432 4275 c0 -16 2 -22 5 -12 2 9 2 23 0 30 -3 6 -5 -1 -5 -18z"/>
<path d="M3379 3682 l-397 -26 -6 -301 c-4 -165 -9 -318 -13 -339 l-5 -39 153
6 c85 4 296 12 469 18 173 6 318 14 321 18 4 3 9 160 11 349 l4 342 -71 -1
c-38 -1 -248 -13 -466 -27z m505 -59 c-1 -7 -2 -127 -3 -265 -1 -139 -5 -258
-9 -264 -5 -8 -127 -17 -377 -28 -203 -9 -387 -16 -409 -16 l-38 0 6 148 c3
81 9 204 12 274 l6 126 92 7 c181 14 573 32 646 31 53 -1 75 -5 74 -13z"/>
<path d="M4652 3593 c-31 -6 -22 -27 12 -31 35 -4 58 14 36 28 -8 5 -17 9 -20
8 -3 0 -15 -3 -28 -5z"/>
<path d="M480 3494 c-107 -8 -247 -17 -310 -21 l-115 -8 -3 -55 c-1 -30 -12
-143 -23 -250 -11 -107 -22 -247 -25 -310 -5 -105 -4 -113 10 -96 9 11 16 23
16 26 0 12 50 30 80 30 20 0 35 -8 46 -25 17 -26 48 -33 60 -14 4 7 7 28 8 48
1 45 6 46 248 56 101 4 203 10 228 14 l45 6 7 70 c4 39 14 158 23 265 8 107
18 214 21 238 l5 42 -63 -1 c-35 -1 -151 -8 -258 -15z m200 -457 c0 -8 3 -7
10 3 5 8 13 11 17 6 4 -4 -1 -14 -12 -22 -11 -8 -19 -21 -17 -28 1 -9 -11 -15
-35 -18 -52 -6 -83 1 -76 18 6 17 -8 19 -24 3 -10 -10 -47 -16 -133 -22 -33
-2 -35 0 -35 28 -1 30 0 30 65 35 144 11 240 10 240 -3z m5 -87 c-94 -14 -335
-22 -335 -11 0 11 66 15 270 18 85 1 102 -1 65 -7z m-601 -122 c-8 -12 -42
-10 -50 3 -10 17 17 29 37 16 10 -6 15 -15 13 -19z m106 23 c22 -6 20 -8 -18
-14 -44 -8 -62 -3 -62 14 0 10 43 10 80 0z"/>
<path d="M4860 3335 c0 -61 62 -72 74 -13 8 40 1 48 -40 48 -32 0 -34 -2 -34
-35z"/>
<path d="M5148 3353 c6 -2 18 -2 25 0 6 3 1 5 -13 5 -14 0 -19 -2 -12 -5z"/>
<path d="M4470 3307 c0 -40 19 -60 52 -55 20 3 23 9 23 43 0 39 -1 40 -37 43
-37 3 -38 2 -38 -31z"/>
<path d="M6378 3078 c7 -7 16 -7 28 0 14 8 13 10 -10 10 -18 0 -24 -4 -18 -10z"/>
<path d="M5245 3038 c-10 -26 2 -55 17 -40 8 8 8 18 1 34 -10 21 -12 21 -18 6z"/>
<path d="M723 2773 c9 -2 23 -2 30 0 6 3 -1 5 -18 5 -16 0 -22 -2 -12 -5z"/>
<path d="M1013 2773 c-7 -2 -13 -13 -13 -22 0 -14 6 -17 33 -12 31 4 31 5 7
12 -14 4 -19 7 -12 8 6 1 12 6 12 11 0 11 -7 12 -27 3z"/>
<path d="M446 2725 c-13 -10 -24 -11 -37 -4 -28 14 -23 4 7 -16 24 -16 27 -16
45 1 33 30 21 46 -15 19z"/>
<path d="M820 2730 c19 -13 30 -13 30 0 0 6 -10 10 -22 10 -19 0 -20 -2 -8
-10z"/>
<path d="M743 2715 c-3 -9 -2 -19 1 -23 8 -8 38 10 44 26 6 18 -38 14 -45 -3z"/>
<path d="M910 2724 c0 -8 32 -33 43 -34 14 0 7 28 -9 34 -20 8 -34 8 -34 0z"/>
<path d="M1009 2703 c-1 -5 -1 -12 0 -17 1 -4 -3 -13 -8 -20 -7 -8 1 -12 30
-12 45 -2 49 3 14 16 -16 6 -23 14 -19 25 3 8 1 15 -5 15 -6 0 -12 -3 -12 -7z"/>
<path d="M699 2667 c-34 -29 -44 -56 -23 -64 10 -4 20 1 26 10 5 10 16 17 24
17 8 0 13 4 10 9 -4 5 3 7 14 4 16 -4 19 -2 14 11 -4 10 -12 15 -20 12 -7 -3
-14 1 -16 9 -2 10 -10 8 -29 -8z"/>
<path d="M440 2666 c0 -9 5 -16 10 -16 6 0 10 4 10 9 0 6 -4 13 -10 16 -5 3
-10 -1 -10 -9z"/>
<path d="M370 2661 c0 -10 25 -21 48 -21 15 1 14 3 -2 15 -22 17 -46 20 -46 6z"/>
<path d="M795 2660 c-4 -6 5 -10 20 -10 15 0 24 4 20 10 -3 6 -12 10 -20 10
-8 0 -17 -4 -20 -10z"/>
<path d="M917 2663 c-13 -12 -7 -42 11 -51 12 -7 26 -4 47 9 l30 19 -32 0
c-23 0 -33 5 -33 15 0 16 -12 20 -23 8z"/>
<path d="M473 2628 c-35 -17 -27 -26 11 -14 19 6 32 14 30 18 -6 10 -13 9 -41
-4z"/>
<path d="M740 2604 c0 -8 5 -12 10 -9 6 3 10 10 10 16 0 5 -4 9 -10 9 -5 0
-10 -7 -10 -16z"/>
<path d="M850 2571 c0 -25 47 -34 80 -15 24 14 23 15 -22 9 -29 -4 -48 -2 -48
4 0 5 6 12 13 14 7 3 5 6 -5 6 -11 1 -18 -6 -18 -18z"/>
<path d="M1068 2573 c7 -3 16 -2 19 1 4 3 -2 6 -13 5 -11 0 -14 -3 -6 -6z"/>
<path d="M760 2495 c0 -9 56 -32 93 -38 27 -4 37 -3 34 6 -2 7 -21 13 -43 15
-21 2 -43 8 -48 13 -10 9 -36 13 -36 4z"/>
<path d="M1130 2425 c0 -8 -6 -15 -12 -16 -16 -1 31 -17 52 -18 8 0 4 6 -10
14 l-25 14 23 1 c13 0 20 4 17 10 -10 16 -45 12 -45 -5z"/>
<path d="M3416 2358 c7 -11 34 -10 34 1 0 6 -9 9 -19 8 -11 0 -17 -5 -15 -9z"/>
<path d="M3608 2353 c7 -3 16 -2 19 1 4 3 -2 6 -13 5 -11 0 -14 -3 -6 -6z"/>
<path d="M2350 2319 c0 -18 2 -19 15 -5 8 8 15 17 15 20 0 3 -7 6 -15 6 -9 0
-15 -9 -15 -21z"/>
<path d="M2836 2331 c-3 -5 1 -12 10 -15 9 -3 14 -12 11 -20 -3 -8 1 -13 11
-12 9 0 21 -10 28 -22 6 -13 15 -19 18 -14 3 6 -12 29 -33 51 -22 23 -42 37
-45 32z"/>
<path d="M2233 2140 c-13 -5 -23 -14 -23 -20 0 -12 35 3 45 20 7 12 7 12 -22
0z"/>
<path d="M1635 2130 c28 -12 37 -12 30 0 -3 6 -16 10 -28 9 -21 0 -21 -1 -2
-9z"/>
<path d="M2809 2083 c-13 -16 -12 -17 4 -4 16 13 21 21 13 21 -2 0 -10 -8 -17
-17z"/>
<path d="M2880 2089 c0 -5 5 -7 10 -4 6 3 10 8 10 11 0 2 -4 4 -10 4 -5 0 -10
-5 -10 -11z"/>
<path d="M1823 2027 c-37 -12 -46 -33 -10 -23 12 3 32 6 45 6 13 0 22 6 22 15
0 17 -10 17 -57 2z"/>
<path d="M1623 2003 c-4 -10 -14 -23 -22 -30 -14 -11 -13 -12 9 -13 17 0 29 8
35 22 6 12 21 25 35 29 21 6 19 7 -13 8 -27 1 -39 -4 -44 -16z"/>
<path d="M1760 1977 c0 -1 4 -17 9 -35 9 -30 8 -32 -17 -32 l-27 -1 23 -19
c22 -18 23 -18 48 5 30 28 26 56 -11 73 -14 6 -25 11 -25 9z"/>
<path d="M1645 1950 c-7 -12 2 -12 30 0 19 8 19 9 -2 9 -12 1 -25 -3 -28 -9z"/>
<path d="M7567 1947 c-4 -10 3 -14 24 -14 17 0 28 5 26 11 -5 17 -44 19 -50 3z"/>
<path d="M7650 1910 c20 -13 33 -13 25 0 -3 6 -14 10 -23 10 -15 0 -15 -2 -2
-10z"/>
<path d="M7577 1904 c-9 -10 2 -24 19 -24 8 0 14 7 14 15 0 15 -21 21 -33 9z"/>
<path d="M1620 1884 c0 -17 22 -14 28 4 2 7 -3 12 -12 12 -9 0 -16 -7 -16 -16z"/>
<path d="M4872 1888 c-31 -31 0 -98 46 -98 22 0 52 34 52 61 0 38 -70 65 -98
37z"/>
<path d="M2300 1880 c0 -5 9 -15 19 -22 14 -9 17 -16 10 -24 -7 -8 -6 -14 1
-19 5 -3 10 -15 10 -26 0 -11 -4 -17 -10 -14 -5 3 -17 2 -26 -3 -15 -8 -15
-10 1 -16 12 -4 26 1 41 15 18 17 21 26 14 45 -9 24 2 34 15 14 7 -12 58 -8
65 6 3 5 -6 11 -19 12 -19 3 -21 6 -10 14 10 7 8 8 -10 4 -14 -3 -31 0 -38 6
-8 6 -16 8 -20 5 -3 -4 -14 -2 -24 4 -13 6 -19 6 -19 -1z"/>
<path d="M5040 1850 c0 -5 5 -10 10 -10 6 0 10 5 10 10 0 6 -4 10 -10 10 -5 0
-10 -4 -10 -10z"/>
<path d="M1655 1829 c-10 -15 -3 -19 41 -22 23 -1 42 -8 45 -17 6 -13 8 -12
14 2 10 25 -20 54 -39 39 -10 -8 -16 -9 -21 -1 -8 13 -32 13 -40 -1z"/>
<path d="M1790 1820 c-8 -5 -11 -12 -7 -16 4 -4 13 -2 19 4 15 15 7 24 -12 12z"/>
<path d="M7640 1820 c0 -5 5 -10 10 -10 6 0 10 5 10 10 0 6 -4 10 -10 10 -5 0
-10 -4 -10 -10z"/>
<path d="M1880 1790 c0 -5 5 -10 10 -10 6 0 10 5 10 10 0 6 -4 10 -10 10 -5 0
-10 -4 -10 -10z"/>
<path d="M4490 1789 c0 -5 5 -7 10 -4 6 3 10 8 10 11 0 2 -4 4 -10 4 -5 0 -10
-5 -10 -11z"/>
<path d="M1650 1771 c-7 -15 -7 -21 0 -21 12 0 25 28 17 36 -3 3 -10 -4 -17
-15z"/>
<path d="M2374 1771 c7 -11 56 -21 56 -11 0 9 -25 20 -46 20 -9 0 -13 -4 -10
-9z"/>
<path d="M1766 1761 c-6 -8 43 -35 51 -28 5 6 -26 37 -37 37 -5 0 -11 -4 -14
-9z"/>
<path d="M2350 1742 c-18 -6 -30 -22 -30 -41 0 -10 3 -11 14 -2 10 9 16 8 26
-4 13 -16 30 -11 30 9 0 21 -24 44 -40 38z"/>
<path d="M2295 1649 c-4 -6 -5 -12 -2 -15 7 -7 37 7 37 17 0 13 -27 11 -35 -2z"/>
<path d="M7427 1653 c-5 -9 11 -238 21 -302 8 -49 0 -46 155 -55 l77 -4 0 178
0 177 -52 7 c-73 8 -196 8 -201 -1z"/>
<path d="M2118 1623 c7 -3 16 -2 19 1 4 3 -2 6 -13 5 -11 0 -14 -3 -6 -6z"/>
<path d="M2225 1616 c-18 -13 -18 -15 -2 -30 20 -20 21 -28 6 -43 -7 -7 -3
-23 15 -54 46 -78 43 -75 58 -61 11 11 10 18 -5 43 -9 17 -17 37 -17 44 0 8
-8 19 -17 25 -17 10 -17 10 0 20 23 15 22 33 -3 25 -20 -6 -28 9 -10 20 12 7
13 25 2 25 -5 0 -17 -6 -27 -14z"/>
<path d="M2309 1560 c24 -21 41 -26 41 -12 0 15 -24 32 -44 32 -20 -1 -20 -1
3 -20z"/>
<path d="M4025 1571 c-3 -5 -1 -12 5 -16 5 -3 10 1 10 9 0 18 -6 21 -15 7z"/>
<path d="M4060 1559 c0 -5 5 -7 10 -4 6 3 10 8 10 11 0 2 -4 4 -10 4 -5 0 -10
-5 -10 -11z"/>
<path d="M2780 1436 c0 -8 5 -18 10 -21 6 -3 10 1 10 9 0 8 -4 18 -10 21 -5 3
-10 -1 -10 -9z"/>
<path d="M2710 1409 c0 -5 5 -7 10 -4 6 3 10 8 10 11 0 2 -4 4 -10 4 -5 0 -10
-5 -10 -11z"/>
<path d="M2656 1403 c-11 -11 -7 -53 6 -53 6 0 8 3 5 6 -3 4 -2 15 3 25 10 17
-1 35 -14 22z"/>
<path d="M4900 1350 c0 -5 5 -10 11 -10 5 0 7 5 4 10 -3 6 -8 10 -11 10 -2 0
-4 -4 -4 -10z"/>
<path d="M5068 1343 c7 -3 16 -2 19 1 4 3 -2 6 -13 5 -11 0 -14 -3 -6 -6z"/>
<path d="M5120 1340 c0 -5 7 -10 16 -10 8 0 12 5 9 10 -3 6 -10 10 -16 10 -5
0 -9 -4 -9 -10z"/>
<path d="M5170 1340 c0 -5 5 -10 10 -10 6 0 10 5 10 10 0 6 -4 10 -10 10 -5 0
-10 -4 -10 -10z"/>
<path d="M6505 1340 c-3 -5 1 -10 9 -10 8 0 18 5 21 10 3 6 -1 10 -9 10 -8 0
-18 -4 -21 -10z"/>
<path d="M5288 1333 c7 -3 16 -2 19 1 4 3 -2 6 -13 5 -11 0 -14 -3 -6 -6z"/>
<path d="M5338 1333 c6 -2 18 -2 25 0 6 3 1 5 -13 5 -14 0 -19 -2 -12 -5z"/>
<path d="M5390 1330 c0 -13 11 -13 30 0 12 8 11 10 -7 10 -13 0 -23 -4 -23
-10z"/>
<path d="M5508 1323 c6 -2 18 -2 25 0 6 3 1 5 -13 5 -14 0 -19 -2 -12 -5z"/>
<path d="M5568 1323 c6 -2 18 -2 25 0 6 3 1 5 -13 5 -14 0 -19 -2 -12 -5z"/>
<path d="M5625 1320 c3 -5 10 -10 16 -10 5 0 9 5 9 10 0 6 -7 10 -16 10 -8 0
-12 -4 -9 -10z"/>
<path d="M5680 1320 c0 -5 7 -10 16 -10 8 0 12 5 9 10 -3 6 -10 10 -16 10 -5
0 -9 -4 -9 -10z"/>
<path d="M5735 1320 c-3 -5 1 -10 10 -10 9 0 13 5 10 10 -3 6 -8 10 -10 10 -2
0 -7 -4 -10 -10z"/>
<path d="M5798 1313 c6 -2 18 -2 25 0 6 3 1 5 -13 5 -14 0 -19 -2 -12 -5z"/>
<path d="M5848 1313 c6 -2 18 -2 25 0 6 3 1 5 -13 5 -14 0 -19 -2 -12 -5z"/>
<path d="M5910 1310 c0 -5 4 -10 9 -10 6 0 13 5 16 10 3 6 -1 10 -9 10 -9 0
-16 -4 -16 -10z"/>
<path d="M5965 1310 c3 -5 14 -10 23 -10 15 0 15 2 2 10 -20 13 -33 13 -25 0z"/>
<path d="M3768 1303 c7 -3 16 -2 19 1 4 3 -2 6 -13 5 -11 0 -14 -3 -6 -6z"/>
<path d="M3815 1300 c4 -6 11 -8 16 -5 14 9 11 15 -7 15 -8 0 -12 -5 -9 -10z"/>
<path d="M6028 1303 c6 -2 18 -2 25 0 6 3 1 5 -13 5 -14 0 -19 -2 -12 -5z"/>
<path d="M6283 1293 c15 -2 37 -2 50 0 12 2 0 4 -28 4 -27 0 -38 -2 -22 -4z"/>
<path d="M6388 1293 c7 -3 16 -2 19 1 4 3 -2 6 -13 5 -11 0 -14 -3 -6 -6z"/>
<path d="M6448 1293 c6 -2 18 -2 25 0 6 3 1 5 -13 5 -14 0 -19 -2 -12 -5z"/>
<path d="M6508 1293 c6 -2 18 -2 25 0 6 3 1 5 -13 5 -14 0 -19 -2 -12 -5z"/>
<path d="M3797 1264 c-8 -8 1 -24 13 -24 4 0 10 7 14 15 5 15 -14 21 -27 9z"/>
<path d="M2420 1179 c0 -5 5 -7 10 -4 6 3 10 8 10 11 0 2 -4 4 -10 4 -5 0 -10
-5 -10 -11z"/>
<path d="M2380 1159 c0 -5 5 -7 10 -4 6 3 10 8 10 11 0 2 -4 4 -10 4 -5 0 -10
-5 -10 -11z"/>
<path d="M3230 1120 c0 -5 5 -10 10 -10 6 0 10 5 10 10 0 6 -4 10 -10 10 -5 0
-10 -4 -10 -10z"/>
<path d="M7611 974 c0 -11 3 -14 6 -6 3 7 2 16 -1 19 -3 4 -6 -2 -5 -13z"/>
<path d="M2355 940 c-4 -6 -2 -17 4 -23 15 -15 25 -2 13 19 -7 12 -11 13 -17
4z"/>
<path d="M7600 919 c0 -13 15 -18 30 -9 8 5 22 5 32 -1 14 -7 18 -6 18 5 0 11
-11 15 -40 14 -22 0 -40 -4 -40 -9z"/>
</g>
</svg>
